<mxfile host="app.diagrams.net" modified="2023-08-31T02:08:14.417Z" agent="Mozilla/5.0 (Windows NT 10.0; Win64; x64) AppleWebKit/537.36 (KHTML, like Gecko) Chrome/116.0.0.0 Safari/537.36" etag="1GRJ9QyG9Wb5ycM6e4Qa" version="21.7.1" type="device">
  <diagram name="페이지-1" id="QZwvFwM_inGwRHb3H1L_">
    <mxGraphModel dx="3434" dy="1950" grid="0" gridSize="10" guides="0" tooltips="1" connect="1" arrows="1" fold="1" page="0" pageScale="1" pageWidth="827" pageHeight="1169" background="none" math="0" shadow="0">
      <root>
        <mxCell id="0" />
        <mxCell id="1" parent="0" />
        <mxCell id="agkJGMWgo49mgOo-eszO-14" style="edgeStyle=orthogonalEdgeStyle;rounded=0;orthogonalLoop=1;jettySize=auto;html=1;exitX=0.5;exitY=1;exitDx=0;exitDy=0;entryX=0.5;entryY=0;entryDx=0;entryDy=0;" parent="1" source="HEAWCpbGmRsyPqDrCjQY-6" target="agkJGMWgo49mgOo-eszO-4" edge="1">
          <mxGeometry relative="1" as="geometry" />
        </mxCell>
        <mxCell id="HEAWCpbGmRsyPqDrCjQY-6" value="&lt;b&gt;&lt;font style=&quot;font-size: 24px;&quot;&gt;AdminboardList.jsp&lt;/font&gt;&lt;/b&gt;" style="rounded=1;whiteSpace=wrap;html=1;fillColor=#fad7ac;strokeColor=#b46504;" parent="1" vertex="1">
          <mxGeometry x="-1218" y="-554" width="287" height="53" as="geometry" />
        </mxCell>
        <mxCell id="UeKgmQtvJm2V4L9KuCcI-69" style="edgeStyle=orthogonalEdgeStyle;rounded=0;orthogonalLoop=1;jettySize=auto;html=1;exitX=1;exitY=0.5;exitDx=0;exitDy=0;entryX=0;entryY=0.5;entryDx=0;entryDy=0;entryPerimeter=0;shape=flexArrow;startArrow=block;" parent="1" source="agkJGMWgo49mgOo-eszO-16" target="UeKgmQtvJm2V4L9KuCcI-68" edge="1">
          <mxGeometry relative="1" as="geometry">
            <mxPoint x="-845" y="624" as="sourcePoint" />
          </mxGeometry>
        </mxCell>
        <mxCell id="UeKgmQtvJm2V4L9KuCcI-23" style="edgeStyle=orthogonalEdgeStyle;rounded=0;orthogonalLoop=1;jettySize=auto;html=1;exitX=0.5;exitY=1;exitDx=0;exitDy=0;entryX=0.5;entryY=0;entryDx=0;entryDy=0;" parent="1" source="agkJGMWgo49mgOo-eszO-4" target="UeKgmQtvJm2V4L9KuCcI-21" edge="1">
          <mxGeometry relative="1" as="geometry">
            <mxPoint x="-1076" y="-321" as="sourcePoint" />
          </mxGeometry>
        </mxCell>
        <mxCell id="UeKgmQtvJm2V4L9KuCcI-17" value="" style="group" parent="1" vertex="1" connectable="0">
          <mxGeometry x="-1819" y="-849" width="973" height="210" as="geometry" />
        </mxCell>
        <mxCell id="HEAWCpbGmRsyPqDrCjQY-3" value="&lt;font style=&quot;&quot;&gt;&lt;b style=&quot;&quot;&gt;&lt;font style=&quot;font-size: 36px;&quot;&gt;WEB-INF&lt;br&gt;&lt;br&gt;&lt;br&gt;&lt;br&gt;&lt;/font&gt;&lt;br&gt;&lt;/b&gt;&lt;/font&gt;" style="rounded=1;whiteSpace=wrap;html=1;movable=1;resizable=1;rotatable=1;deletable=1;editable=1;locked=0;connectable=1;" parent="UeKgmQtvJm2V4L9KuCcI-17" vertex="1">
          <mxGeometry width="973" height="210" as="geometry" />
        </mxCell>
        <mxCell id="UeKgmQtvJm2V4L9KuCcI-16" value="&lt;b&gt;&lt;font style=&quot;font-size: 24px;&quot;&gt;index.jsp&lt;/font&gt;&lt;/b&gt;" style="rounded=1;whiteSpace=wrap;html=1;fillColor=#fad7ac;strokeColor=#b46504;" parent="UeKgmQtvJm2V4L9KuCcI-17" vertex="1">
          <mxGeometry x="154" y="108" width="169" height="53" as="geometry" />
        </mxCell>
        <mxCell id="HEAWCpbGmRsyPqDrCjQY-2" value="&lt;b&gt;&lt;font style=&quot;font-size: 24px;&quot;&gt;admin&lt;/font&gt;&lt;/b&gt;" style="rounded=1;whiteSpace=wrap;html=1;fillColor=#fad7ac;strokeColor=#b46504;" parent="UeKgmQtvJm2V4L9KuCcI-17" vertex="1">
          <mxGeometry x="660" y="112" width="169" height="53" as="geometry" />
        </mxCell>
        <mxCell id="Npa9Y6lDgFgyrHnARazE-2" value="&lt;font style=&quot;font-size: 14px;&quot;&gt;&lt;b&gt;관리자&lt;/b&gt;&lt;/font&gt;" style="text;html=1;strokeColor=none;fillColor=none;align=center;verticalAlign=middle;whiteSpace=wrap;rounded=0;" parent="UeKgmQtvJm2V4L9KuCcI-17" vertex="1">
          <mxGeometry x="715" y="77" width="60" height="30" as="geometry" />
        </mxCell>
        <mxCell id="Npa9Y6lDgFgyrHnARazE-3" value="&lt;font style=&quot;font-size: 14px;&quot;&gt;&lt;b&gt;사용자&lt;/b&gt;&lt;/font&gt;" style="text;html=1;strokeColor=none;fillColor=none;align=center;verticalAlign=middle;whiteSpace=wrap;rounded=0;" parent="UeKgmQtvJm2V4L9KuCcI-17" vertex="1">
          <mxGeometry x="209" y="79" width="60" height="30" as="geometry" />
        </mxCell>
        <mxCell id="UeKgmQtvJm2V4L9KuCcI-18" style="edgeStyle=orthogonalEdgeStyle;rounded=0;orthogonalLoop=1;jettySize=auto;html=1;exitX=0.5;exitY=1;exitDx=0;exitDy=0;entryX=0.5;entryY=0;entryDx=0;entryDy=0;" parent="1" source="HEAWCpbGmRsyPqDrCjQY-2" target="HEAWCpbGmRsyPqDrCjQY-6" edge="1">
          <mxGeometry relative="1" as="geometry" />
        </mxCell>
        <mxCell id="UeKgmQtvJm2V4L9KuCcI-33" style="edgeStyle=orthogonalEdgeStyle;rounded=0;orthogonalLoop=1;jettySize=auto;html=1;exitX=0.5;exitY=1;exitDx=0;exitDy=0;entryX=0.5;entryY=0;entryDx=0;entryDy=0;" parent="1" source="UeKgmQtvJm2V4L9KuCcI-19" target="agkJGMWgo49mgOo-eszO-2" edge="1">
          <mxGeometry relative="1" as="geometry">
            <mxPoint x="-1580.5" y="37" as="targetPoint" />
          </mxGeometry>
        </mxCell>
        <mxCell id="dkHJhAdtGxxNUYU7T9ZQ-3" style="edgeStyle=orthogonalEdgeStyle;rounded=0;orthogonalLoop=1;jettySize=auto;html=1;exitX=1;exitY=0.5;exitDx=0;exitDy=0;entryX=0;entryY=0.5;entryDx=0;entryDy=0;shape=link;strokeWidth=1;" parent="1" source="UeKgmQtvJm2V4L9KuCcI-19" target="UeKgmQtvJm2V4L9KuCcI-21" edge="1">
          <mxGeometry relative="1" as="geometry" />
        </mxCell>
        <mxCell id="UeKgmQtvJm2V4L9KuCcI-19" value="&lt;b&gt;&lt;font style=&quot;font-size: 24px;&quot;&gt;FileboardList.jsp&lt;/font&gt;&lt;/b&gt;" style="rounded=1;whiteSpace=wrap;html=1;fillColor=#fad7ac;strokeColor=#b46504;" parent="1" vertex="1">
          <mxGeometry x="-1697" y="-188" width="233" height="53" as="geometry" />
        </mxCell>
        <mxCell id="UeKgmQtvJm2V4L9KuCcI-41" style="edgeStyle=orthogonalEdgeStyle;rounded=0;orthogonalLoop=1;jettySize=auto;html=1;exitX=0.5;exitY=1;exitDx=0;exitDy=0;entryX=0.5;entryY=0;entryDx=0;entryDy=0;startArrow=none;startFill=0;" parent="1" source="UeKgmQtvJm2V4L9KuCcI-21" target="agkJGMWgo49mgOo-eszO-3" edge="1">
          <mxGeometry relative="1" as="geometry">
            <mxPoint x="-1076" y="33" as="targetPoint" />
          </mxGeometry>
        </mxCell>
        <mxCell id="UeKgmQtvJm2V4L9KuCcI-63" style="edgeStyle=orthogonalEdgeStyle;rounded=0;orthogonalLoop=1;jettySize=auto;html=1;exitX=1;exitY=0.25;exitDx=0;exitDy=0;entryX=0;entryY=0.5;entryDx=0;entryDy=0;" parent="1" source="UeKgmQtvJm2V4L9KuCcI-21" target="agkJGMWgo49mgOo-eszO-7" edge="1">
          <mxGeometry relative="1" as="geometry">
            <Array as="points">
              <mxPoint x="-799" y="-175" />
              <mxPoint x="-799" y="-324" />
              <mxPoint x="-559" y="-324" />
            </Array>
            <mxPoint x="-763" y="-358" as="targetPoint" />
          </mxGeometry>
        </mxCell>
        <mxCell id="UeKgmQtvJm2V4L9KuCcI-21" value="&lt;b&gt;&lt;font style=&quot;font-size: 24px;&quot;&gt;FileboardListAdmin.jsp&lt;/font&gt;&lt;/b&gt;" style="rounded=1;whiteSpace=wrap;html=1;fillColor=#fad7ac;strokeColor=#b46504;" parent="1" vertex="1">
          <mxGeometry x="-1219" y="-188" width="287" height="53" as="geometry" />
        </mxCell>
        <mxCell id="UeKgmQtvJm2V4L9KuCcI-42" style="edgeStyle=orthogonalEdgeStyle;rounded=0;orthogonalLoop=1;jettySize=auto;html=1;exitX=0.5;exitY=1;exitDx=0;exitDy=0;entryX=0.5;entryY=0;entryDx=0;entryDy=0;startArrow=none;startFill=0;" parent="1" target="UeKgmQtvJm2V4L9KuCcI-39" edge="1">
          <mxGeometry relative="1" as="geometry">
            <mxPoint x="-1076" y="98" as="sourcePoint" />
          </mxGeometry>
        </mxCell>
        <mxCell id="UeKgmQtvJm2V4L9KuCcI-52" style="edgeStyle=orthogonalEdgeStyle;rounded=0;orthogonalLoop=1;jettySize=auto;html=1;entryX=0.5;entryY=0;entryDx=0;entryDy=0;exitX=1;exitY=0.5;exitDx=0;exitDy=0;" parent="1" source="agkJGMWgo49mgOo-eszO-7" target="UeKgmQtvJm2V4L9KuCcI-37" edge="1">
          <mxGeometry relative="1" as="geometry">
            <mxPoint x="-232" y="-360" as="sourcePoint" />
          </mxGeometry>
        </mxCell>
        <mxCell id="UeKgmQtvJm2V4L9KuCcI-30" value="&lt;b style=&quot;border-color: var(--border-color);&quot;&gt;&lt;font style=&quot;border-color: var(--border-color); font-size: 24px;&quot;&gt;Fileboardget&lt;/font&gt;&lt;/b&gt;&lt;b&gt;&lt;font style=&quot;font-size: 24px;&quot;&gt;.jsp&lt;/font&gt;&lt;/b&gt;" style="rounded=1;whiteSpace=wrap;html=1;fillColor=#fad7ac;strokeColor=#b46504;" parent="1" vertex="1">
          <mxGeometry x="-1699" y="231" width="235" height="53" as="geometry" />
        </mxCell>
        <mxCell id="UeKgmQtvJm2V4L9KuCcI-31" style="edgeStyle=orthogonalEdgeStyle;rounded=0;orthogonalLoop=1;jettySize=auto;html=1;exitX=0.5;exitY=1;exitDx=0;exitDy=0;entryX=0.5;entryY=0;entryDx=0;entryDy=0;" parent="1" source="UeKgmQtvJm2V4L9KuCcI-16" target="agkJGMWgo49mgOo-eszO-1" edge="1">
          <mxGeometry relative="1" as="geometry">
            <mxPoint x="-1581.5" y="-383" as="targetPoint" />
          </mxGeometry>
        </mxCell>
        <mxCell id="UeKgmQtvJm2V4L9KuCcI-60" style="edgeStyle=orthogonalEdgeStyle;rounded=0;orthogonalLoop=1;jettySize=auto;html=1;exitX=0.5;exitY=1;exitDx=0;exitDy=0;entryX=1;entryY=0.5;entryDx=0;entryDy=0;startArrow=none;startFill=0;" parent="1" source="UeKgmQtvJm2V4L9KuCcI-37" target="agkJGMWgo49mgOo-eszO-11" edge="1">
          <mxGeometry relative="1" as="geometry">
            <mxPoint x="-370.9966666666669" y="-74.9966666666669" as="targetPoint" />
          </mxGeometry>
        </mxCell>
        <mxCell id="UeKgmQtvJm2V4L9KuCcI-37" value="&lt;b style=&quot;border-color: var(--border-color);&quot;&gt;&lt;font style=&quot;border-color: var(--border-color); font-size: 24px;&quot;&gt;FileboardAdd&lt;/font&gt;&lt;/b&gt;&lt;b&gt;&lt;font style=&quot;font-size: 24px;&quot;&gt;.jsp&lt;/font&gt;&lt;/b&gt;" style="rounded=1;whiteSpace=wrap;html=1;fillColor=#fad7ac;strokeColor=#b46504;" parent="1" vertex="1">
          <mxGeometry x="-288" y="-264" width="287" height="53" as="geometry" />
        </mxCell>
        <mxCell id="JK0r9D_tuI9x6pK2y3JA-2" style="edgeStyle=orthogonalEdgeStyle;rounded=0;orthogonalLoop=1;jettySize=auto;html=1;exitX=0.5;exitY=1;exitDx=0;exitDy=0;entryX=0.5;entryY=0;entryDx=0;entryDy=0;startArrow=classic;startFill=1;" parent="1" source="UeKgmQtvJm2V4L9KuCcI-39" target="agkJGMWgo49mgOo-eszO-6" edge="1">
          <mxGeometry relative="1" as="geometry">
            <mxPoint x="-1076.067" y="452.32299999999987" as="targetPoint" />
          </mxGeometry>
        </mxCell>
        <mxCell id="UeKgmQtvJm2V4L9KuCcI-39" value="&lt;b style=&quot;border-color: var(--border-color);&quot;&gt;&lt;font style=&quot;border-color: var(--border-color); font-size: 24px;&quot;&gt;Fileboardget&lt;/font&gt;&lt;/b&gt;&lt;b&gt;&lt;font style=&quot;font-size: 24px;&quot;&gt;Admin.jsp&lt;/font&gt;&lt;/b&gt;" style="rounded=1;whiteSpace=wrap;html=1;fillColor=#fad7ac;strokeColor=#b46504;" parent="1" vertex="1">
          <mxGeometry x="-1229" y="231" width="307" height="53" as="geometry" />
        </mxCell>
        <mxCell id="UeKgmQtvJm2V4L9KuCcI-40" style="edgeStyle=orthogonalEdgeStyle;rounded=0;orthogonalLoop=1;jettySize=auto;html=1;exitX=0.5;exitY=1;exitDx=0;exitDy=0;" parent="1" source="UeKgmQtvJm2V4L9KuCcI-39" target="UeKgmQtvJm2V4L9KuCcI-39" edge="1">
          <mxGeometry relative="1" as="geometry" />
        </mxCell>
        <mxCell id="UeKgmQtvJm2V4L9KuCcI-62" style="edgeStyle=orthogonalEdgeStyle;rounded=0;orthogonalLoop=1;jettySize=auto;html=1;exitX=0;exitY=0.5;exitDx=0;exitDy=0;entryX=1;entryY=0.75;entryDx=0;entryDy=0;" parent="1" source="agkJGMWgo49mgOo-eszO-11" target="UeKgmQtvJm2V4L9KuCcI-21" edge="1">
          <mxGeometry relative="1" as="geometry">
            <mxPoint x="-707.9966666666669" y="-74.9966666666669" as="sourcePoint" />
            <Array as="points">
              <mxPoint x="-798" y="-87" />
              <mxPoint x="-798" y="-148" />
            </Array>
          </mxGeometry>
        </mxCell>
        <mxCell id="UeKgmQtvJm2V4L9KuCcI-66" style="edgeStyle=orthogonalEdgeStyle;rounded=0;orthogonalLoop=1;jettySize=auto;html=1;exitX=1;exitY=0.5;exitDx=0;exitDy=0;entryX=0;entryY=0.5;entryDx=0;entryDy=0;shape=flexArrow;startArrow=block;" parent="1" source="UeKgmQtvJm2V4L9KuCcI-65" target="agkJGMWgo49mgOo-eszO-16" edge="1">
          <mxGeometry relative="1" as="geometry">
            <mxPoint x="-1103" y="624" as="targetPoint" />
          </mxGeometry>
        </mxCell>
        <mxCell id="UeKgmQtvJm2V4L9KuCcI-65" value="" style="shape=image;verticalLabelPosition=bottom;labelBackgroundColor=default;verticalAlign=top;aspect=fixed;imageAspect=0;image=data:image/png,iVBORw0KGgoAAAANSUhEUgAAAMYAAAA8CAYAAAA9ksUiAAAIeElEQVR4Ae2d63IURRTHeRyKhCUhS3bXSrIJCDGExUyCoBLLKnFrvYCVfFAxFxJKsShLiZQrKoIPQO1D4Me8R3yOY53ZnNme3u4zPbM7ZGfmfJiaS3efvv1/fbp7dpJTp8fLIIe0gWggrIFTaoPMzC+BHNIGooEl6AOjNnsFpt+6JIe0QaE10AcGQnFualYOaYNCa0DAEAAKDYDNCQgYAoaAYdCAgGFoFNsoIs+LM8UWMAQM8RgGDQgYhkYRz1Acz2DrawFDwBCPYdCAgGFoFNsoIs+L40kEDAFDPIZBAwKGoVHEMxTHM9j6WsAQMMRjGDQgYBgaxTaKyPPieJLUwJi4uALl21/B9N1HUPnmKVQfPPcPvMZnGIZxRGzFEVuW+nroYEw1PoLK179C7eE/TgfGxTRZajQpa/5hHhoYE7NLUNn4yQkGEzSYFm2I6PIvuiz08VDAmLzyHlS3nyWGgkBBG2grCw0nZcw3wAODgUKu7b0YGAqCA20JHPkWXRYGlYHAwKnPMDxFAMXxugRtyrTKDoe3uwn//bsDR6/WwZucCXlYLiwLgoxbxrTqOxAYg6wpdBj0e7Qdp5Fm1upwbWceVn9egLVfFuDag3mofzgXy0ac/IYRt9Rs+QJHkXeaYYFz9jkxcGGczbhhXnMdOu1NOHy1HdShCys+a8FBc7EP2rh5uMRPq76JwcCdJF3Mw7533a2auTEHa08WjEd9vT6ScJQmF+FAEdVR23MuJycGLsxFaFFxvGYLDl+HYUAgTMfh7mJfnbyGBwcIlCEsKm9TeFr1TQyGy5Zsdf8FlFs7ULp+G8YWluHM7GUYu7wCJe9jmPpyH2r7L1m4MA9TY+jPlre7UNRv12GiPOcfeI2wXP9+wcmGbjPt+1JjPSSwo9ebcNBw8xqcGLiwQeqEIG+0e0AcvdqEzq4HnlbmUmMR0JuYxK8OBrkEA1/MRXmHyvYzOLv8vg8DAmE6zq19EmnH5SXgyuMuGJO13rx8YrrrRVafjCYYPQFvBoC4iqWX9s2sMVRBI8CdZr8ncIFOteNa1yi7XFtEpeXCE3kMfGvNgVHZfwFnl2/5MJxduuF7h8pW209T2fodyl/sQff5Q9YO5oF5cRXAMFxToHfQ49H0Sn9+0vdhgXjBSGxaTJvKyomBCzPZcnlGNuOuhXTb4Xong0u3SWVzbTs9ve0+ERjT935kBX2++Z0PxfjVW1Dde26OGzGNIvAwL1vh6Tl6hUyBcbzopulT3EU4JwYujNorzlmd8g06yucejKj1BU2hyvcemaFw/LkIwuGyzljVPAZ5CtdzHKEMIy7N1WmUK0160Dle0Loswjnxc2FJyh6U9XULNrStYVd7VCbTAp2eqbtyNFAcHefpA9XublFjfBVQsk1t6VqmqHiJPEZ19y9W8GPzV32PYfUWMcDAvKIqQQBQPLp3PVO6N3FWIVA7OI4AOTFwYXHrZytrXDtUJoLAdLaD4UFH2b3LCRg8QDRd4s4uYOgd5QoExdPTp3lPIqFpFOWlTllUkVC4eg5spPyCrzdyu++YqeXUr12nUr18W9Bpb4PvObTdL7LNtQXFSXJO5DFcp1IX7v3AehYOCApzmUrpFSfBu5719Gndq8LQp0yhMIPg1TJxYuDCVBsu14GtAaZRaj5qHVVvqcbBawIDvYM+gOhxgzJGtJmeLuo+ERiRi+8797s7UotrUN390whHZes3qO78YQwjKPDssvjWK+kKBMXT06d1H+UVgk6OeKcRxDOIgQuLW6/A1gmCwQGE9QnKaGiLuPVV4ycCI2q7tvrwJYwv3fThGHv7XZj6bBf87dr9l1D59imc//Q+jF9s+O85qnt/s3C4bNeqFcJrErzrWU+f1n3UOkIFhxMEJwYuLG69AlsnBEaUt8D6BGUcBTCcXvBttQG3a00v9ujZxAefR779dnnBp3e4KxAUT0+fxr26kNWnUZSfOtWgHRkKU8+cGLgw1YbLdWDrxMCI3gkLyjgKYGCjRq0zcBqEnuP8nfvdN+DzS3Cm/g6MLa7CxM0WXNh8zHoKTJ9kfYFlI8G7nl1EMmgcdd7MLa6po3F+bYtHcUxblFxY3DpQmV1GbhfbKvicR+zlm0EwRulHhHqnuAJB8fT0adzTNMq0VWl7ZvMsnPi5sLj1Uqd2Nkjj2CwEGNggo/Szc7WDSPCuZzVtGteqwGwQmJ7bRmpO/FxY3LqFpn9DmKoUBgz5UKn3o0VOdIFYHefqKkimKUdgzyBWLowroy2M7CG4g3qNwoCBjSmftvJwqGKwTY10UYbSxBQ/Cdm0/tDzcbkPeQ1HsG121XqZgKd0mV5jUCXwjHAM4xPXPP4xBOrkuCMul44TPxem9lmca7Us3FvoKJsqGNwgQflxO3OUVxr1RduJ3mNQodQzTqsGWXNg2jx+502LbpdOVtszNFJrX/dxYuDCVPtxr1Gs6pd7h+112MCPkrQfFnrMh0qYZ1A+fIlp+a4jV2BQQ+NulctWLr3dxriun7BSHlk5q+Lmpg62+tigCsQVc5ply8f1eanR/4M+06YBPTPVWV0/UTzdm+YSDGpkfDGHb62L/Cc6AwFH/MSD2kw/qyJSRRbYfcNgUPmC77a1X72iwA/xk9f2utUboA0TYOrCPtdgUCPKmV+cS/uMZvsMbY0hHTyaHSz9kqxfBAz5NwCRH4IVES4BI+dgqBsA6mKXux7WO5AsAyVgCBh9fyxNwBjie4wsjw5S9mTz8Dy3m3iMnHuMPIs3zboJGAKGLL4NGhAwDI2S5kgktrMxbRMwBAzxGAYNCBiGRpFRPRujepr9JGAIGOIxDBoQMAyNkuZIJLaz4Y0EDAFDPIZBAwKGoVFkVM/GqJ5mP/WBUZu9Ahdql+SQNii0BkJgnB4vgxzSBqKBMvwPL8whhhSdyl4AAAAASUVORK5CYII=;" parent="1" vertex="1">
          <mxGeometry x="-1495.0036363636366" y="593.9999999999995" width="198" height="60" as="geometry" />
        </mxCell>
        <mxCell id="UeKgmQtvJm2V4L9KuCcI-68" value="&lt;b style=&quot;border-color: var(--border-color); font-size: 72px;&quot;&gt;MariaDB&lt;/b&gt;" style="html=1;whiteSpace=wrap;shape=isoCube2;backgroundOutline=1;isoAngle=15;" parent="1" vertex="1">
          <mxGeometry x="-627" y="429" width="419" height="391" as="geometry" />
        </mxCell>
        <mxCell id="Npa9Y6lDgFgyrHnARazE-1" value="&lt;b style=&quot;&quot;&gt;&lt;font style=&quot;font-size: 24px;&quot;&gt;모든 Ctrl은 .do 로 servlet으로 연결하며,&amp;nbsp; DAO &amp;lt;-&amp;gt; MariaDB로 데이터 불러온다.&lt;/font&gt;&lt;/b&gt;" style="text;html=1;strokeColor=none;fillColor=none;align=center;verticalAlign=middle;whiteSpace=wrap;rounded=0;" parent="1" vertex="1">
          <mxGeometry x="-1570" y="-942" width="471" height="54" as="geometry" />
        </mxCell>
        <mxCell id="Npa9Y6lDgFgyrHnARazE-89" value="&lt;span style=&quot;border-color: var(--border-color); font-size: 14px;&quot;&gt;&lt;b&gt;공지사항의 id값을 목록으로 불러온다.&lt;/b&gt;&lt;/span&gt;" style="text;html=1;strokeColor=none;fillColor=none;align=center;verticalAlign=middle;whiteSpace=wrap;rounded=0;" parent="1" vertex="1">
          <mxGeometry x="-1073" y="-492" width="252" height="49" as="geometry" />
        </mxCell>
        <mxCell id="Npa9Y6lDgFgyrHnARazE-90" value="&lt;b style=&quot;border-color: var(--border-color); font-size: 14px;&quot;&gt;작성한 자료실의 내용과 파일을 &lt;br&gt;DAO -&amp;gt; DB 로 수정하여 저장&lt;br&gt;&lt;/b&gt;" style="text;html=1;strokeColor=none;fillColor=none;align=center;verticalAlign=middle;whiteSpace=wrap;rounded=0;" parent="1" vertex="1">
          <mxGeometry x="-539" y="13" width="228" height="49" as="geometry" />
        </mxCell>
        <mxCell id="Npa9Y6lDgFgyrHnARazE-91" value="" style="group" parent="1" vertex="1" connectable="0">
          <mxGeometry x="-1535" y="-471" width="389" height="49" as="geometry" />
        </mxCell>
        <mxCell id="Npa9Y6lDgFgyrHnARazE-95" value="" style="group" parent="Npa9Y6lDgFgyrHnARazE-91" vertex="1" connectable="0">
          <mxGeometry x="17" width="354" height="49" as="geometry" />
        </mxCell>
        <mxCell id="Npa9Y6lDgFgyrHnARazE-92" value="&lt;b style=&quot;border-color: var(--border-color); font-size: 14px;&quot;&gt;해당 자료실의 id값을 목록으로 불러온다.&lt;/b&gt;&lt;span style=&quot;font-size: 14px;&quot;&gt;&lt;b&gt;&lt;br&gt;&lt;/b&gt;&lt;/span&gt;" style="text;html=1;strokeColor=none;fillColor=none;align=center;verticalAlign=middle;whiteSpace=wrap;rounded=0;" parent="Npa9Y6lDgFgyrHnARazE-95" vertex="1">
          <mxGeometry x="32.74098360655737" width="290.7934426229508" height="49" as="geometry" />
        </mxCell>
        <mxCell id="Npa9Y6lDgFgyrHnARazE-93" value="" style="shape=flexArrow;endArrow=classic;html=1;rounded=0;" parent="Npa9Y6lDgFgyrHnARazE-95" edge="1">
          <mxGeometry width="50" height="50" relative="1" as="geometry">
            <mxPoint x="40.11803278688524" y="26" as="sourcePoint" />
            <mxPoint x="-16" y="26" as="targetPoint" />
          </mxGeometry>
        </mxCell>
        <mxCell id="Npa9Y6lDgFgyrHnARazE-94" value="" style="shape=flexArrow;endArrow=classic;html=1;rounded=0;" parent="Npa9Y6lDgFgyrHnARazE-95" edge="1">
          <mxGeometry width="50" height="50" relative="1" as="geometry">
            <mxPoint x="311.43278688524583" y="26" as="sourcePoint" />
            <mxPoint x="365" y="26" as="targetPoint" />
          </mxGeometry>
        </mxCell>
        <mxCell id="Npa9Y6lDgFgyrHnARazE-98" value="" style="group" parent="1" vertex="1" connectable="0">
          <mxGeometry x="-1514" y="-85" width="354" height="49" as="geometry" />
        </mxCell>
        <mxCell id="Npa9Y6lDgFgyrHnARazE-99" value="&lt;b style=&quot;border-color: var(--border-color); font-size: 14px;&quot;&gt;해당 자료실의 id값을 불러온다.&lt;/b&gt;&lt;span style=&quot;font-size: 14px;&quot;&gt;&lt;b&gt;&lt;br&gt;&lt;/b&gt;&lt;/span&gt;" style="text;html=1;strokeColor=none;fillColor=none;align=center;verticalAlign=middle;whiteSpace=wrap;rounded=0;" parent="Npa9Y6lDgFgyrHnARazE-98" vertex="1">
          <mxGeometry x="32.74098360655737" width="290.7934426229508" height="49" as="geometry" />
        </mxCell>
        <mxCell id="Npa9Y6lDgFgyrHnARazE-100" value="" style="shape=flexArrow;endArrow=classic;html=1;rounded=0;" parent="Npa9Y6lDgFgyrHnARazE-98" edge="1">
          <mxGeometry width="50" height="50" relative="1" as="geometry">
            <mxPoint x="41.11803278688524" y="26" as="sourcePoint" />
            <mxPoint x="-15" y="26" as="targetPoint" />
          </mxGeometry>
        </mxCell>
        <mxCell id="Npa9Y6lDgFgyrHnARazE-101" value="" style="shape=flexArrow;endArrow=classic;html=1;rounded=0;" parent="Npa9Y6lDgFgyrHnARazE-98" edge="1">
          <mxGeometry width="50" height="50" relative="1" as="geometry">
            <mxPoint x="304.43278688524583" y="26" as="sourcePoint" />
            <mxPoint x="358" y="26" as="targetPoint" />
          </mxGeometry>
        </mxCell>
        <mxCell id="Npa9Y6lDgFgyrHnARazE-102" value="&lt;span style=&quot;border-color: var(--border-color); font-size: 14px;&quot;&gt;&lt;b&gt;해당 공지사항을 삭제한다.&lt;/b&gt;&lt;/span&gt;" style="text;html=1;strokeColor=none;fillColor=none;align=center;verticalAlign=middle;whiteSpace=wrap;rounded=0;" parent="1" vertex="1">
          <mxGeometry x="-1094" y="298" width="252" height="49" as="geometry" />
        </mxCell>
        <mxCell id="Npa9Y6lDgFgyrHnARazE-103" value="&lt;b style=&quot;border-color: var(--border-color); font-size: 14px;&quot;&gt;DB의 저장된 자료실 테이블을&lt;br&gt;전달받아 글 추가로 진행&lt;/b&gt;" style="text;html=1;strokeColor=none;fillColor=none;align=center;verticalAlign=middle;whiteSpace=wrap;rounded=0;" parent="1" vertex="1">
          <mxGeometry x="-790" y="-289" width="204" height="49" as="geometry" />
        </mxCell>
        <mxCell id="agkJGMWgo49mgOo-eszO-13" style="edgeStyle=orthogonalEdgeStyle;rounded=0;orthogonalLoop=1;jettySize=auto;html=1;exitX=0.5;exitY=1;exitDx=0;exitDy=0;entryX=0.5;entryY=0;entryDx=0;entryDy=0;" parent="1" source="agkJGMWgo49mgOo-eszO-1" target="UeKgmQtvJm2V4L9KuCcI-19" edge="1">
          <mxGeometry relative="1" as="geometry" />
        </mxCell>
        <mxCell id="agkJGMWgo49mgOo-eszO-1" value="" style="shape=image;verticalLabelPosition=bottom;labelBackgroundColor=default;verticalAlign=top;aspect=fixed;imageAspect=0;image=data:image/png,iVBORw0KGgoAAAANSUhEUgAAAT8AAAA8CAYAAAAQRb2xAAAOCklEQVR4Ae1dbVMcxxHWz3EZhEEgDlwgwI6FsYytE46dRKRSFYciL1YKfYijCCGhSpRypRITVYiTKFJ+gIofoXzkf5DfMame49ntG+alZ28XuNv+cDX7Mtvd0/30s707u3tX3hqfMfpTHygGFANtw8CVtg1Yx6tJrhhQDBAGriwsrxn9qQ8UA4qBNmGgIL/5xZtm9t339ac+UAwoBkYeA8R3BfkR8b0zvag/9YFiQDEw8hi4Pv++kp8Svp7wFAPtw4CSn57hR/4Mr8TWPmKTxFzJT8lPyU8x0EoMKPkp8FsJfElloH1Gu2JU8lPyU/JTDLQSA0p+CvxWAl+rutGu6iTxVfJT8lPyUwy0EgNKfgr8VgJfUhlon9GuDpX8lPyU/BQDrcSAkp8Cv5XA16putKs6SXyV/JT8lPwUA63EQCPkN/nebTNz99dm9qtnpvP1czP3+IX90TJto33UR8LO2kfP0IoBxUATGKiV/KbXf2w6v/mrmX/6H9GP+tIxTQxMZWrCKAYUAzEM1EJ+k4trprPzJxHh+YiRjiUZMUN1nwJZMaAYqBMDA5Pf1M3vm7nd7yoTH8iQZJCsOgensjRZFAOKgRAGBiI/Iqv5Jy8HJj4QIMlSAlSwhsCq2xUbdWKgMvnRZWodFV9BfKf3CUmmXgKnQd7du2/+999H5uT1pulOLdRaMTcpu07wXqSsialVc/B618bgeG+1Vv9f5Lguq+4mMFmZ/Aa5x+cSnrtOsnOCsLCxZD5+tGzu/HnFbPxlxXz8eNks/ehGlowcfTl9J9Y3zfGbXpIQWcV+LpEh4MeH3TNjwT73mBzbQn2blB3SOWzbU+SHuJ+82TY7GScn+N4X84vwUXdr0xwd3jfHp0QP/J68pm3b5mBrtfaTr2+c8EudeK9EfjRD6xJW3evSWeCFz26YjW9XvL+lzaUzpOFzbJPbkAQATazlgZ2Y6pqjU9I8eXPfHKz3V3dNgAF+aFI2dAx72wT5pWJe1Wfd9a45IALLqFC7W9vik7ZPbhWdsfE1gclK5Cd5nGVu/6WZ2X5kJj65a8ZWbpm3Fz8wYx/cNhPdn5jpX+2b+f1XUQIlHTFnYN+t3R7xLd1dMpMzN+yPlokQP/n9ikgGZDXRgvx8BJbSh4D7qgDs44SZkifd36RsqQ2XvV8T5Edjhu99Ma/ik5Sdrkzqv3NYXqlQhXe01zVd5+Q7sb5qqCr0kWquTtcG3zr8Uifes8mPHk5OVXmd3e/M1Vs/sIRHpOf7vbPx06QcyYPQt7/pkd/UfHmfbHK2Vw3e+Xa4yc8HAmxrAgznIRs6hr1NJXh50su77K3bLyk7uT7el07WR1vV7mVyOb6qkOuULjeB92zyo7czYuTX2X9prt76whLe1bXPbJXXeXhoj+k8/LuZ+eUT09v+NCqHdJCulHPoHh9VeW4/XAq72897vUyCs5eug9jSBBhgT5OyoWPY21SCl3EfHvJD3OnWzNFW/22WnHilfJMjC31h24VWfrP3/hglrWtbv7PEN/7RF2buyQt/38QlL8iVdGHwoZaqOyW/6kD1+bUJoPn0DPO2VIIPG/nBXiK+Qau1lG+qxL0JTGZXfqn7fbjcnbn3zE98wlffiAAl9/3uOJUfKj5pWyUQOccAVFXu+eHey8kAs712tu5177EYTLbQLN3OeviSxgUagdneAGczfjSe48NNs+PcCwr5ZgI33ZkMm2inM4ah47DdHr+3bY5pltGZPe+NJ3wCmNja7j0WdDrzapPzsPRJKNnDvlswqQQv455X+cViTr4gvTvWD+y+nCcWiCFi7mt5dVfozZydRnyozdWZExfIvtDKb27vX1FSG1v+yFZ+waovg/xIF3eubxkkh31Yl7Y4rqm2TIL8y94CkBXIzyYJS3Af+INJ3/cMYfk8m09G795QhHjsDfSSaHwyaNsJEXLgkRA+Cxo6nraHxtOfZF1z5BKwMwvKiS2kj+6HxZ7zK+MeHpcPc7GYk0zXdm4fJwaQBd/vLoP8uH9DPvTZ6m7L0UnH5sQFsvkYXf2569mVn5z84iSJS9tYKyE/d8BS0kM/9/i618skOF/yK5KIblzTbN0psbikiATg4+ZAOzjcNZbgmAzqS1URKrBYVQs7KPFoBpPPGtKMoa1i8EhPgABtclKFaGcd+ytWqghBCCE7eJId2fFQ5esnbE58oXFDH8jERxhl3OshP05Q9kTB7CebbZV6ePaBdz4en50Uy9I/+RjluMGyRGe/3m2TigvHJLAMfVXbbPKTXvZev/eHaIUYIz3sk1z2ugMHqUlb9/i618skyAcWiCP3shdgpuT0kRuNsQCT5zIH++j4EKGQjL6E9FSn/Xb0kxb3M3xkCdKpwni/0HLqeG5HbDx2TKeXyDHf8eQO2Qybch9yDsUcY8iVx20NkR/inSs7GA/h2y8YUwpnpKewscY3mrLJLznh8eWD3kzv6oaZ2/unlwA7D/9m5h79w7sPxEetZMLDDYCU9NDPPb7udSQBBTj28yVlKBFiYOBg95EmxseJyyVIAC2U2JBBLQDs2i+1A7Kgs2oCxnwFG1PjybGZx9VHKtifO57QOAr/ZCY/H5PPTvJ/IdtzIkR8clqJTpInjUufjZnjj9mdTX6pR13mnr4y42ufWwIc+96nZvrne8Y+6rL/ynR++9xc+9kDM/7eun0OcO7Jv6MEKHnUxR0cSE3ausfXvY4kiBEf7XPJg+wIJQLtKwDrgAH6fPLcsUG+mxSFbEEyhEg0xw6yC/3JFy4Zu3b71jEWH+EjyVI+gQ2pftbeRHVTyqrpsldQkfr8IiGinHj7dLjbJDqtD4uJqPRVUWGjg3dXd856NvmJHnJ+eGjoURffw83YNvnDXyTf8pA85OwOVkp66OceX/d6mQTpALu6YwkdAkOR6AKQhOSHZLv20XoI6IUdAgKNyXF1kj56dWrHvnO6bY6c2d84+cWJKMfm0Lhhbxn3uE70RxuKCddnK1jhTDs/zj3JQWcRb2GscFyoleikY3P8XdgowHXILnd7NvmRgNR9P7pkpQrw2pcPem96LK+Zt5c+NGOrd8zk59vm+v1vohUfHV/lfh/ZBlKTtq5D6l4vk+B8yA8gSVWafL9LGJAhmVkLAT1HBvk8JAfx6D12Uj7ewe3ny+5YrOyiwogTUY7NKXvLuMd1YnxoQ+Rnx8GqTYyZJj/o4wI43m1Tdlq5hX/yMerqs/KYnSHC7deb9lFObHw2+bZVIr/L9GEDd1BS0kM/9/i618skyAdWLBFCYMB2JIekdQkDMi4L+cEeGgtdkh4f9mZ+d7Zo9rj3VZGYr6QVBvQMMm7gp4x7OrFxDLWxcaCf70TgzgCjr4j82JeHqtxygC60Ep3UVxoX6psTG9iRaiuRHwm9TJ+04oMEqUlbfmwTy2USnC/5SRI4NN4coIXu+RUyhJdSPGF4AsJ/RHyxKiJGGtIkK2wWXFpxe312we66Jjx8sbKPCrFnOX26UnaSXB7DQXADGyU6rd6i4kyfIHJiAztSbWXy04+Zlh9SiDm5TILzIT9posdsLoAmIK7Q+ELbQ3pD/QtbEoRUB/mVvkvHihPGRZEffAnf+U4QUiKCn0kGP/lAR04r1Vn6e8jIj5yhn7FPEyCAKZlBdAEWS2iA1T1T86SsCmLIliRCYaNDTtwO97LaHSetQ6c7ntB2LiOlS5pkiJWPRLg+bm+oL2T5qjFXFl8v/Ol5bpL348sxsont65fBvx+ZJiN+rLss1jmslR8GTARYx+fsR/UPjMokSFcT8CnaWCLESKE4jio39iYA5KZayKbEjiUvSCVEklxO7PNI8JFPDmSE7KBEw3itvR7SgJ0hGdwfkBU7WXF7SeeFV36RCQZORKmTEPxk/VgRO+RLqU7ok8SlwIFzkuWxy12ufNnLFdEl8CD3AOnYUf3fDiRKLJm4L/lykYiehI6Boa8SOv0uG38liMBpv7RLL8hHZfc+ImBtZzOKlnDo2OK1tLOvVdE4eBJYknBfb8NL+pDjsQX+swlpP8hQvpaGV9vIPvrUuu3jk5FRYfTpc3xn/Xb6hWOaYMBrbudBfl0bK/qQRP9n4/l9vxDGCqzQF8FZHDnWsEyEhLj2YnZWJ/W1E02Bj5na/Xg/PKJzJMgPjqNZYMljMHiLg/pKP1cPHcPWIplCwIyNpyr5kUwQAwE49vNVA0Wy0FnWSQZXlnuZ6o7HEiC7Ke8ej3X73m/gwwawB315a4lva6G8bB6Q/KzvkmOmy0LZhw24raFlHoNQzGM+ILnwg+v/HhbK97C5DaHbIlLsQFaM/NEHLdc5UuQHx9PDyfR2xuxXz0zn6+dm7vEL+6Nl2kb7qjzADPnD1F4U+VnQo7JyvmJCiWL/fMb5WAH8ikQDsVEy0OfKAWBq8ec1OCbVFv/pwD5HZe0QPqzbe7zDsYEdW9hcA/lZ39FHF+h/L7i9+KT7lPyTVtxnoWUJ+RVVp/N5suIz84ETB+LiIzROROjH2yJmDn568adqezNaSaZ0jiT5cQfqcnpSRH2kPlIMnD8Garnnp4E7/8Cpz9XnioHBMKDkNz2YAxWA6j/FwHBiQMlPyS/4Xqgm9XAmtcZNFjclPyU/JT/FQCsxoOSnwG8l8LU6klVHo+wnJT8lPyU/xUArMaDkp8BvJfBHuaLRscmqWiU/JT8lP8VAKzGg5KfAbyXwtTqSVUej7CclPyU/JT/FQCsxoOSnwG8l8Ee5otGxyapaJT8lPyU/xUArMaDkp8BvJfC1OpJVR6PsJyU/JT8lP8VAKzHQR37zizcNbdCf+kAxoBgYdQwQ3701PmP+D/cBg8f0dA/rAAAAAElFTkSuQmCC;" parent="1" vertex="1">
          <mxGeometry x="-1740" y="-386" width="319" height="60" as="geometry" />
        </mxCell>
        <mxCell id="agkJGMWgo49mgOo-eszO-3" value="" style="shape=image;verticalLabelPosition=bottom;labelBackgroundColor=default;verticalAlign=top;aspect=fixed;imageAspect=0;image=data:image/png,iVBORw0KGgoAAAANSUhEUgAAAZ0AAAA8CAYAAAC96GddAAARoElEQVR4Ae1d63IdxRHmcShshI2FJaVsZENAGCPCsQkkQalUhaiUC6TkHyHEtrCphBSVSnCoKCQhkAdw6SHIT72H8xyT6jn6ZntbPbO9VySf/nFq9jLT093zTX8zu7Nznnjy7HKg36Ur1/znPnAMOAYcA46BUTHwBCedtcsvh4vfedF/7gPHgGPAMeAYGAUDNdIhwnnmwmX/uQ8cA44Bx4BjYBQMOOk4sEYBlg9efPDmGHAMaBhw0nHScdJxDDgGHAOTYcBJx8E2Gdi0UY9f89GwY2CxMOCk46TjpOMYcAw4BibDgJOOg20ysPmIdrFGtN7e3t4aBpx0nHScdBwDjgHHwGQYcNJxsE0GNm3U49d8NOwYWCwMOOk46TjpOAYcA46ByTDgpONgmwxsPqJdrBGtt7e3t4YBJx0nHScdx4BjwDEwGQacdBxsk4FNG/X4NR8NOwYWCwOjkM65F94Iy+/8Olx875Ow8sHnYfWjL+OPjuka3aM8DrbFApu3t7e3Y8AxMCjpXNj8cVj5zV/D2sf/Mf0oL5VxIDoQHQOOAcfAYmBgENI5d/laWNn9k4loNEKisiTDQbcYoPN29nZ2DCwuBnqTzvmXvx9W73zRmXBAQiSDZDkYFxeM3vbe9o6Bxx8DvUiHSGLt3le9CQfEQ7KceB5/0Hlg8TZ2DCwuBjqTDj0OG2KGkwjn6D0QyfRHbc2AnO3dCv/7793w6OFWmJ2/NOgMcUzZj0uwWTq/ER48vBPb4HBvY1D/Py4+amuH+7S537f1aZf8Y/f/zqTT5x2OJBp5TrLbOOvSzfXw2t0r4cafr4abf7kaXvvoSlj/0fOtZLSpr03epc2tcPjNPDgRSZR+kkDQ+If7s2O24J4s00a3XN4xZefqPG3XuwbI2fZWeLB/KxweERbHw+HDW+Fgfys82D6ZJLa0vZPwe7A97ECH2r+rT4fGDvCv9buh6+LyCBsHCjYePSS87ERcDD3A5PXjGPaPEVuojk6kQyvOJFEMfW5d1XbpzefDzc+uqr/1rfVjwRqOnSrtSjpL52fh4IisHn1zKzzYrHfyMYExpuyp/D52PW0D5Gx7xzz4ICIaI6iTT2absznptZydcXtJv0fKQKivz3kd39bssanf9bVRK98GG5pfurappgtdG7v/dyIdy7Lo1ftfheWdu2Hp9XfCmavXw1OXXwpnXnojLM1+Ei786n5Yu/91kbiojpxT+PXrd+aEs/7Oeji3/Hz80TER0eu/v2qSweUNfQzS0YijqS40vjbiwr0xRiNjym6y+bTctwZIyre7P38UGoM1zWa2N8JMDCIo32xzI+zSaDfmqQ8yhvCLVWetLuAYM7MueNbk8mt99ONy+h4D/1q/6yubl59jo3oKQjOag73ZcWxsboQ0QxaDhTF8BvvHiC1kf2vSoY86m2Y1K3e+CE9f/0EkGiIb7ffMzZ82yrF8QPrGp3PSOb9WPQ89d3E++7nx2ekmHQ5QeTwmMMaULe04refWzr67XwUVbZQ6pf1WnTWdKkzcSjO2oe3po5+m80m+xm0lAqeBSBd9uZyh2qNq6+HfF5ONrUmHdhMokc7K/a/C09ffjkTz9LU346xm5fZ+LLNy++9h+Zf3wvz6x0U5VAfV1dQQ9A6HZjUyHx65yetTn2OEOPTIcExgjCl7av+PVZ+ls8OPYz4ua2OfRWdNXr3cLIBIhx4J1+vpFoQ1/U/itaGwMYbPoNvQ7Yt2aE06F9//Y5Esnt3+XSScs6++HVbvfannbXi0BlKjuqBoLqXZjJPOsI9ixgZdri1P0/Wmzo7BBhHOUCPQvv5p0jknHwsIMHDC+dBk2lW/nN4n9fqQ2BjDZ2P3/9ak0/Q+B4/Vlt//RCcc4xY5RDyW9zo3xEwHMxxrOjYwATB02Db1pRGl8tLWCoy4IuZh9U4hBsGHO2F3Mz+SlLIJ2PFlJ1txRfYc7m+FXfFuImffEl5gMxnQxbJaK5bf2wm0wkuuBqSVPSU9ECQffbMTds9fmq+SYu9ZcqSQ992RjMKS6dR2IyxpJx/ndTvermhP8nfuV1q4IG2pvWxXsJnDQFnvZp/CDozAgSnYNMfkrPYJAWF3l3DDVpDGdyeFx1nJXsW2pMPRvSifVpzV5M9XmuX8kOQf4TGXr3QdesB2LeVt2qYPQDb8XNKjy73WpLO6968imZy58mqc6WRnOS1Ih+pqMgrkgnw4t6YoN1b6bZEOOoMGRlzLBtvaN0DV9ygox1Pq6Bzc0o8WPUjeIyKOzPdGPMjxuuVxzp56h5uFA0l8hZezsg6c0zP43Hc6XN+cTtJP1nOLP2WdCCLQXUtzbZizpW3gJL3hL61+ulbyKfkHdsRgWPgUAcEy6i7amtct/YQ2SLY1kA76NpfJjzX5OX+ibmsKX/D65DFv0zZ9ALLhR6tO1nwjkk6ZnPAIrZRaSEcaaiUb5JPlhz4HMKee6aSOQ6RAK2KOAroMWhyYsJ2D7sH+nRCJhcmgfDTSxuiuZBv0oA5Bq4H4qq0lWq3FRqE54pkHj53wIK7sqY/kabQLEsnpwTvcQbQnPzPiwTFnN+pDJ5fBparv+FJ3+LhrCn9K3Sztym2TOuf0SVgQy/aBa/KBhiEuj9cr9aZ881lbteAiYkUMBGK+NBiazywoKGKGK+0/3JslkqPjhH8DXpKPi6SzEz9piJhlTw1mm7T6cG6LhsehscF9W2rTqt6d0NQHUpuPNEtvTTrWx2vPvf+H4oyoRDa4Z3m8xsFNxyATayrLD32OzqkBsKkuE/gVYABgpYCQgKVM8XGPypf05qM27buNuh51suC2w0e5YMPzasdN5bkeJXtINs+bC6a8o2s6w394nKfp3OWaRbdS3VzvUoCCbjy/bN/aPQWDkEGpRW8uT/MpyYFtEZeZOtFnKE9ODset5gfIkDZbdSjhETYMhQ3uN80WtANvg6Y+kHTM+Bgyu6atSadxIcG7H85Xrm3cDKt7/1SJZ+X238Lq3X+o90A4lFoWEkjDrWSDfLL80OccgOgIWqoBwQJ+OQXmINQ6DezjHU8GV4Au12khg1KAWepv1QOyUGfXzljyFXRssqeNzrxdZWfvawt8wlOrbqV25TKkzrwuHHMbJUYoT2VnfkbH6yzhkeTx+jT9TPWxx26yb8AuSkt4Kd2DDoQlzSeoI8kQgRvlu+Ic8pFy/2o+S/nYbhKlfJQ/6Sh0h6y+aWvSaVoyvfrx1+Hstbci8Zz57vfChZ/vhbhk+v7XYeW3n4dnf/ZhOPvCZvyOZ/Xev4vEY1kyLR0AMrGmsvzQ57wjaWSDazJokx4JuKVpvgAG6tPkSdsgX4IwgU6ZBUkZuSDXRg+SifxNnVnWj3PYogU2kE6TT6BDU76oL3tH0dV/0AsY4KkMmG10gy+kXtYAdcynGRxAJ9Jb1gUZyNPXpyTPgkuOx5xONVmi/9A9+E/DUtJBKQebS/JT+YxPuQzLsbVNgTVLOyQdG2y06KflaU06po9Db+8HWjKtfRSKa+d++IvGXQksH4dKo6xkg3yy/NDnbTqdrLsL+BO4DIDJyW8Duhzokx7GzpWTI31C+Wjbj/jl/v5O/Hof75Yo+GmBwqqLNR/pVNI3+a/BdtTHyQbHx0jnaKQqr0v/0HmuXUs6Szk8eGs+lT7IjdxhY+4+r7dJv+TXAra53qWZSElWzn+ka6lczRa0l8BAKi+u87Jtjpt8Bllt2iHpWPAz5HZJW5MOVdL0XocejdGM59l3P5zvTHDlWnhq/ZVwZuNGOPfWTnju1qfFGQ6V7/I+h3QDmVjTLk5rU2Zq0gFgELwsqQwqkGEJcDnQt5FB/szJga+1l82abdKWKDsTACAbaRudS/pWHTz/2Al1yjSnA65rNueuSV+UdJZ6wAaSbQneuXzQuw+WoJtF1mSkozx9gJ6Uwn+SbKvr7bHB5ePY2qZVvflVopBp8TPydkk7kc5J2vBTGm0lG+ST5Yc+d9KxbaVR6jzoBBTY6PHA4f58JdvuNq2G24grk0qjU2uHQz19AyTaPBeISxjL6YDrJNP660M68Ke1Lson6yM7oXdfn1plnXjSYe+cSmRewgi/V+o3tXzGgZfVz1x22+NOpEOVnKS/NuBGg0ysKS87xjECkOVZqqwfHb9NZ27TyWV9OG8jI9fJkwzjYwTeeXhnhP8oqJWe0Zd8NTnpsPc9WtvBz1qa/CYebeSuazJy17iPS77kPm9FOmJZNenRRu8m/SyycniUPinJKmEples60+G7x4s2ljpazpt8BhnWPkD5k40D6If6edqZdPxP3KoNRrlD5TE68FSk0wZcUlecJ9AZCCNnX+466pBpLn/SpaEDlAKF1SdVvuZHHzy4aQEcelPQ5iQq7ZbnKCdnBpVuzY9HpEycWwNU0sHQ/iQbbacNDCq9h/Op9A3si7qwoF7ye7JRwVUJS6lcR9IhHSGjLTa4nTi2tmnVDs34gX4lP6P+Lmln0qHK/O+qm4kHHXIy0jF2uhJYADpLp0gdVHReHpQto33UKYGeu871b6rL2uHQVlrw5PXRMfTK5a3pZAzeXK70A5dXCqZST35uCVA8j6XdSH6tjMQBe5ykkTPXr8mnuC99w2VY/VSSlTCtEEsqp9yr6VF4nMV1lO98uAzLMfd9yb/WPkB1JhtFW1r0seTpRTpUARHPEH9bTTJIlkXp05QHgWwq0iHfpE5Dwc64Nxr3KUBHAbXUKQDkHDlxOaWt2+EjTQ5k5PSgTgd7o75KMICeORncdsgqtRfXl+rMdXaeb/7levPGrMlepcNXunVrVx6gcoQCX2ltwf0kj0vlKr3zsx3uq5xPS76BPjygl8i5JCvpq2AplVPuQQdK4Y8c5nA/YrZjP431GB/lor6cPlz3ZKOCQZ6v63Fv0qGK6VFbn3c8VJZkdDXiJJdDZyoFsZz+JvArwOAdj+qlgI9tQKguCj7x3wZpCxql81SgO9puhJ7Vsw0SY6CvbV+jLxbgQS4GErkNjtiMUQuE8F/snGJjT2yBE2082sBTlVEYdUrf1+oTvot+O/oHUCIRbHeSI53oa/GPofNNUuvtQfnSvz/i32JHaNdYD7aSEW0KPyTMtZidRTvZDFu2wVA+rXCp403qcZJJJ+pqxkb+T9xITvJLpk1RVyK4zB6HlK8mT8Eg8vRJByEdKECr2izLqbHrAOW1/i016jhtKTrclKRDPkJAJqCVfjJAUNkEYgKd6BhSVulRR9SDRmJsR2dZHudxX7ZMZ4A+yMvTOaleqnRWSLTNKC/q3GgzPRevNrAskU6btoBdpV2Q+7TrXJdqzzzURykFaD5YabKJZMlfibCoDfj3VLxuOp7vu1f2KXBQwhy34aSTThdsaO2CGCN9yu1v0wcsfpZt3+Z8UNJBxfRRJ+0mcPG9T8LKB5+H1Y++jD86pmt0r8uHn5B/mlIAYmrSIR+lGYnYaZd0ob8DiBtoKoFego4CnSSOWJ7NfpraRI7kY6Bp8fcI6lb+7K8Vks4DkE70HW1GemzL+mrzVD6L0wKB5o+5H+nvGeqbW87bg2RXG1hq5XGta7um8mzTSwQqClDJh8oqNJQtpcA6ydR8Ejd47eHTpF9hBH7aSAf+TP1DYCP6kv7Gen+r9rQB5ZBqg5GFIh04wtPjo0H3ifvEMeAYWGQMjDLTWWSHuu0eUBwDjgHHQB4DTjrKs2kHTB4w7hv3jWPAMdAHA046TjrHXgj3AZSX9YDkGHAMlDDgpOOk46TjGHAMOAYmw4CTjoNtMrCVRj9+z0fHjoHFwICTjpOOk45jwDHgGJgMA046DrbJwOYj2cUYyXo7ezuXMOCk46TjpOMYcAw4BibDgJOOg20ysJVGP37PR8eOgcXAgJOOk46TjmPAMeAYmAwDTjoOtsnA5iPZxRjJejt7O5cw4KTjpOOk4xhwDDgGJsOAk46DbTKwlUY/fs9Hx46BxcCAk46TjpOOY8Ax4BiYDAM10lm7/HJ4bu1F/7kPHAOOAceAY2AUDCTSefLscvCf+8Ax4BhwDDgGxsSAk46TrQ82HAOOAcfAZBj4P3Guc42hYjHFAAAAAElFTkSuQmCC;" parent="1" vertex="1">
          <mxGeometry x="-1282" y="49" width="413" height="60" as="geometry" />
        </mxCell>
        <mxCell id="agkJGMWgo49mgOo-eszO-4" value="" style="shape=image;verticalLabelPosition=bottom;labelBackgroundColor=default;verticalAlign=top;aspect=fixed;imageAspect=0;image=data:image/png,iVBORw0KGgoAAAANSUhEUgAAAZkAAAA6CAYAAABiWiQ6AAARnUlEQVR4Ae1d7ZIctRXlcShsFhsv3t2UzdoQMMYsYWwCSXAqVSFbmw+cWv8IcWyvbSohRaUSHCoTkhDIA7j2IcjPfQ/nOZS6mjnqO9or6aqntd523R9T6pmWru7H0T1St7rnmXMXLjv7mA8MA4YBw4BhYGgMPHty1T1DQjfOv+7OfudV+5gPDAOGAcOAYWAQDBCvBJIhgnnhzHn7mA8MA4YBw4BhYBAMvLTxqpGMEatNLAwDhgHDQBsMGMnYbGWQ2YoN0DYD1Pxqfh07BoxkjGSMZAwDhgHDQDMMGMkYuJqBa+wzMNPfVhGGgeUxYCRjJGMkYxgwDBgGmmHASMbA1QxcNgtcfhZoPjQfjh0DRjJGMkYyhgHDgGGgGQaMZAxczcA19hmY6W+rCMPA8hgwkjGSMZIxDBgGDAPNMGAkY+BqBi6bBS4/CzQfmg/HjgEjGSMZIxnDgGHAMNAMA01I5tQr77jVD37tzn70qVv7+Au3fu8r/6Fj+o3OUZ2xM7Tpb7NMw4BhwDCQx8CgJHNm68du7Td/dRuf/Ef1obrUxoKUD5L5x/xjGDAMjBUDg5DMqfOX3drun1TEIhEQtSUZY3Wi6W0JwDBgGDAMyBhYmmROv/59t37ny94EA9IhGSTLAiUHyvxifjEMGAbGiIGlSIZIYeP+10sTDIiGZBnR2EAa40AynQ23hgEZA71Jhi5vDbGCCQQzv49DMu3SmRwsDuLJ3k33v//edY8fXXeT0+cGXQG2lM1tGPPxyulL7uGjOz4GB3uXBvX/mP1Sq7v5sTzWa33ap37LMd+bZJa5BxMTS/ydZNc46ty1TffW3Qvu6p8vumt/uejeunfBbf7o5SoZNf3V1F3Zuu4Ovp0lIyKF3CcmDAT+YDo5ZAvOxW1qdEvVbSk71efYfi8lR8T98bc7brdiEgDfSzF/Ej5a2d4JmN3fHnYyQ/aU/HhUNj8pv0+2r7v96U13MJ+wID88fkS/7biH25cGn0RKPoX9LfJJL5KhHWExMQz9Xbvr7Ny7L7trn18UP5vXNw8lZ8nBLX9DsgF4ciUP8Mrpidufk9Pjb2+6h1uLA7wlKFrKbunro5RdSo6Iew3JlGLe177J1sQ9pERWueLiNhJuHwuTnb46oR3vo1Y/yFi2bOX3nF6T7R315FPyS9+YpnRqOeZ7kYxmm/L6g6/d6s5dt/L2B+7ExSvuufOvuROvveNWJj9xZ371wG08+CZLVNRHyiH89yt3ZgSz+cGmO7X6sv/QMRHP27+/qJLB5Q193CWbw0RR6guBl2a1OMeJqSRPe76lbK0Ox71eKTl2cX+yK5mSnjk/wwZMjKTJTq695twy+mnka+sA89JY08rQ1CN7d6fdlQ1asezvTdwkmkSubF1ytMqRJgctfAb7W+STapKhhyhLq5a1O1+656/8wBMLkYv0eeHaT4tyNA9svvPZjGROb3TXNk+dna1urn4+bpLJgbYlKFrKztk0pnOlgY4EXbOSaWF/Sc9cnx0OboZZtzSrzskonVtGv5Ls43ae20qEvb/d714elzNUPLpYD3+Pt5pk6Gn9HMmsPfjaPX/lfU8sz19+169a1m5PfZu12393q7+872a/f5KVQ31QXyWg0D0YWrXE9XAJLf79qL93yaZ+JZPTtSUoWsrO2TSmc6WB3sW9biUztA9Keqb6W2w3CbPvoWe6i/30S7opG47b7xhXtDJc5v5WC59Bt6HjSzGoJpmzN/6YJYcXt3/nCebkm++79ftfyXULl8pAYtRXCSi0WjGSWbxfU/JZ6XxLwJX6Hsv50kAfPcnMb/jjElmrDQAlP44FDyU9gQcimGVXHy181nLMV5NM6X4MLpOt3vhUJhjlK2eIaDT3Za5GKxmsYLRlCRzLnge4MFhr5OHarXTDVQsKv3vl0Wy7M66t066V3a30rDGWTaD2NyrZDhiy52B63e1G15JT9q3g5jOT4QfcfAdNqh1+9+33dtwB7bqJduvN7EkTLRIkLl35QTrtfJIa9GnfnSvuiuriXreSycWcfEG673o/sOv6QiwQQ8RcKnOz6aDHfIv8ws3xyg0Ay/gRdmCGDRzBnhkOJws7sIKPGE78vY/M5algr2Bb0GF+zsunjRQL8mc7wYDXuAzyK3cbcjnQA7ZLJY9pDe4hG37m/S57XE0y63v/ypLHiQtv+pVMchVTQTLUV8lAkAnq4bu2RLtWZZds6i+XBWDmgJ94TgYDQQIifksm14VncLrnQdCOlzTIObBjP2r0IHmPifgSW315guN9x8cpexYH28Ttx0QX7boinfEMTNwHvtP1dNSR+u3inrYr9hV9z8WcZMa6Qx8qeYJA0uDn4+NU3Li/uW1BN2WiHMKPsMPblnkcALZ73aP4cru5Pdz/wbbcWJtOHOLKZfJjSX7Kn7x/zTF8wfuLj3lMa3AP2fCjRh9tnYYkkycjXBLLlRqSiQ3Vkgvqxe2H/g5QHvVKJgwaIgHavTJP4HHS56CE7RxwD6d3nCcSJoPq0ewUM7mcbdCDBgPt3OG7aGgHjZ+VY6t2gmhmiWPHPfS7cBZXYDSzReJN6cEH2763h1Zy8sqHJ8aU3egPA1xMLPOEiNUTfFsq4a949coTlSdkpj/p7FcL08M3bbk9kp6SPiH+0dZ5YJnslnDDZfF+l/Fj0GW+gqUkiNhRH7sLK9IJI36GeQVGUn4nm4IO0x3/WMHM/x0OJ4z8JQx2+KufaHKf4pj7NhfTrt8dV8J9sDExaUXffcpqktFeLnvpxh+yK54cueCc5nJZbDTIQ1vG7Yf+joEpga/Ulwr4AigArlwyCKASZqU4R+1zei8kPmEGuKhHNyhju+Ej6i83aOJ2+F5qz/XI2UPyeN1UIuWDPKUzdBqMZMI9krqVEddV41te/zDRdau30ox3KD8uYFHAOsUM44RikYwHe+5M8gNkxDaTfI0OiLfUP9rXYgH4jkseI8kW1OcxKOE+6JjwMWT2KatJpnjj/8Nbs51ll6659b1/ikSzdvtvbv3uP8RzIBgqNTf+Y6O15IJ6cfuhv3PwYRBIpQQCDfDjwc4BKA0Y2McJIk6mAJw0YNAeJYAc66/VA3LQZ9+BmPMVdCzZU6Mzj6s00HG+1p6UHcE/lUmA2yTpCf+jhN7kqxgXVCfoEa1y0J5K3mcOg74uuwQm6afqj8mIxwPXK+VbqpM7Bx1SPkEfQUYUI7SvxQLkxiX3r+Qz1NfinuoHHSPdIWuZsppkSluY1z/5xp28/J4nmhPf/Z478/M957cwP/jGrf32C/fiz265k69s+edo1u//O0s0mi3MsfEgD20Ztx/6Ox+0BNLUJ07SpEcArbBKSIEC/UnyYtsgPwZqkC2scmIZKbKq0YNkon5pIMf94ztskZIaBlvJJ9ChVM/ry+7bxP7j9tQmlpQdsKHWP9qEdMiPidjDR6SHZPei7eXLQyX9NFjkGEzpRHoFWUIiTfm91A5+y9UL/SZ8ymVojks+gwxgRoPnoKPgG8jrW1aTjOphzNtTR1uYpYcw8dupH/6i+NS/5mHM2HAtuaBe3H7o7xiUmkDHffcBfgCWAiwp+TWASwE+6KEcWCk5sU+oHr1SY9e/82nH7Ue7zfIkk7/UVKNzSd8u7vk+Y/tSMeH9+QSv3NnH2+USMOnBk7Xkx1kddsksEdsh/ajBItdbWn3BxzlZKb9T21w7yPa+SVzSDO0T/uIyNMfamNbEIeioyBsaHXmdapKhxqX7MnSpi1Y0L354a/bk/4XL7rnNN9yJS1fdqfd23Es3P8uuYKh9n/sxpBvIQ1tyZ7Q47pJNeVYX998H+AALJSLtJ04okJG79ABdU4CvkUGyUnLQz2wbbLdtN2VbbIuXnRj8kI2yRueSvl3chyEZbwdbPcF+uglNL1GEDXFZ0pPXR1Ii2Zpknao3pB81so6MZIQrCpL/4tUr/Npnosnl41gb067fMgY1fkb/tWUvkjlOL8iMDdaSC+rF7Yf+3iUbI5mcb3MDBwOAkhoN1IPpbKfZ7jbtVpu9pTZHyNrBhn6WIVfY2MW9PMDRhsqcHagnEW684wx1c35FHZToGwSmKSVSH9KPGlnHnmTYPaMceSMOpVIbUy3uqT+Nn0t6pc73IhkSdpxe9c+NA3loS962xXGXbI6WZDSJMmVvDeBSAzzIUF4i4AOHD0T4jxJe7nIPEqSU9LSDLeisuGTA9ZX0gt7xrDblc/yeswN1UPot4GwLr9RXSc9OVrclXUMuqCPNzof0o0ZWCoOwDWVOVs7voV3flQzb2bbMuIQd6pgqV/AkN9iowD700Ja9Scb+tKx7IWfO2V2yORqS0SbUnM4BcAqCSNmX+j3Vb6p+0KUA/lyS0Pqkq1eOFU9sT4pk4Ev4TiJibUIKflbEnPrN9hmS2/J+DHpl4s9jwSco8A/KnKwcfkK7niRD/UMGxSinI3TNldqYdngur6ah3xAkGOvem2RIkP39cploMBilGV8cjPi7CvjR4NMOuLgv/h2A0wyIoGNGD2l1wfujY/QZgzz1O2/PbZb60g42xEpK1rw/rm+qLmRJq4tYFv8e/FlIaLxNLunkzkEGryP5D/V4udAmjj27PCQRMJeD+Kb8iPMxLrgMHv9cAs/Jyvk9tCvEJIczrmMtJritdMx9n/NvTp9YZrAximVcr8/3pUiGOiSiGeJvmEkGyepjxHFu0yWb8qwutkMFfAEUoR3NStmT4bH81HcAjgZ+bkAAxFRPGtxcTu615vCRJAcyUnrQgIO9Xl8hEUDPlAzuB8jKTQq4vtSnNNBRR9On2L9gB6/Hj3NJh59LEQj8I/mf9xMf59oN5ccQfwHn0IcncAmHqJeTFfQV/B7aCecgm0r4IxVznPc47Tk2fT9sA0gqphp9uO7Bxoyfef2a46VJhjqjS2fL3KOhtiSjRvGx1O2SzdGRDB90lCwpweO1MuQ3Sjz+n/XoRYvCwOkAN3sJoE+4bAeTT+zUNrwO5vDrTNAP3u/lk3H8Whm87BFyBF3gPz8w/Ys9u9fB4JUy3sb5vQlp0GFwpwY/x9JCf5HvvN/m/2hIN9rxepmjIJmJjxW9UiWKJb2aB7YnHpAM8aTzLI6wOyRY5aUytFvAWRS7ofwYdM8kP67HcSYZPyaif8ScvWR2MaZUz29oSfxpmT+P9wsmYoq+AqEl3gtI9RbkZfyMurXlICSDTmnXmWZ7M57qp7rav1lGH2MrMdhyM+OUTWHwRwOY6pcGHxIwgSz3kZLyguxoUMSycpcxSE8/k2Y3p+P2+O7fa5YYCNAHdXk5I9FznT8EX9WQjNe5aDNd4+6eF8mRDNc1dcxjkIp5zgckF36QsAQMxv1TQuYJWrJDksd/C/oKBEV+x0Qk7tvr7N9Vl/cj7M7hjNtw3EnG44u9S03yS/ybFJdcTBGfGtxr/Ay5teWgJIPO6SFKelr/7EefurWPv3Dr977yHzqm3+hcnwctIX9MJcBw1CRDPgorjuittKQLvR7fv3BSSOwx4OLXq9Mg8O2FWXEqNuE/yfnr0YVX1Cfb08OX8V8WsAcSg84DkIz33XyFwJNk+Kvc0/pX/ccJQ/quIZmwiop8wHVK+W5mT/ciUehACTn4LbEKysmcye12pcnJcLbS6uvHoF9mhj02koFPw5iIxudsfN10+9Pr4soT7aWJJCfZp5pk4AQryxsDzEfmI8OAYeBpxkCTlczT7DCzzRKCYcAwYBjQY8BIZn7jy0CjB435ynxlGDAMaDFgJGMk81Tu6tMOAKtnydIw0BYDRjJGMkYyhgHDgGGgGQaMZAxczcBlM8S2M0Tzr/l3DBgwkjGSMZIxDBgGDAPNMGAkY+BqBq4xzLJMR1sNGAbaYsBIxkjGSMYwYBgwDDTDgJGMgasZuGyG2HaGaP41/44BA0YyRjJGMoYBw4BhoBkGjGQMXM3ANYZZluloqwHDQFsMGMkYyRjJGAYMA4aBZhgwkjFwNQOXzRDbzhDNv+bfMWDASMZIxkjGMGAYMAw0w8ACyWycf93RD/YxHxgGDAOGAcPAEBggXnn25Kr7P7He19WjDUBBAAAAAElFTkSuQmCC;" parent="1" vertex="1">
          <mxGeometry x="-1279" y="-371" width="409" height="58" as="geometry" />
        </mxCell>
        <mxCell id="agkJGMWgo49mgOo-eszO-6" value="" style="shape=image;verticalLabelPosition=bottom;labelBackgroundColor=default;verticalAlign=top;aspect=fixed;imageAspect=0;image=data:image/png,iVBORw0KGgoAAAANSUhEUgAAAWwAAAA8CAYAAABCZoD6AAAPBUlEQVR4Ae1d63IVxxH247gMyBIIJKUEAjtGxlgOBxw7CUqlKo5KuZiU+BGHAOJSCSlXKjGhojgJgTwApYcgP/UeynNMqueo5/Rp5tJ7O+csfD+29jbT05dvvu2dnd196+3jiw4LfAAMAAPAwOxj4C0EafaDhBghRsAAMEAY8IS9ev6SwwIfAAPAADAwuxgYI+yVsxfdme+8jwU+AAaAAWBgxjBA/DxG2ETW7546iwU+AAaAAWBgxjBweuV9EDYuULhAAwPAQB8wAMKesStoH0ADHUFuwMB0MADCBmHjthcYAAZ6ggEQdk8ChYxmOhkN/A6/zxIGQNggbGRXwAAw0BMMgLB7EqhZuspDF2SdwMB0MADCBmEjuwIGgIGeYACE3ZNAIaOZTkYDv8Pvs4QBEDYIG9kVMAAM9AQDIOyeBGqWrvLQBVknMDAdDICwQdjIroABYKAnGOiMsOffu+IWr//anfnykVv66olbvvfUL7RNx+gclcGVejpXavgdfgcG+oeB1gn71MaP3dJv/upWHv7HtFBZqgPw9A88iBliBgxMFgOtEfb82UtuaedPJpKOkTnVJRkAwGQBAH/D38BAfzDQCmEvXPy+W77zbW2yZgInGSQLAOoPgBArxAoYmBwGGhM2EezK/WeNyZpJm2SBtCcHAHQ2+BoY6A8GGhE2DWG0kVkHsj4a9yaZGB4pg2iwe9P977933eGLTTdYWG31zqRL2a8LQcwtrLvHL+74GBzsrrfq/y59hNiW+1ZT/3fl40aE3WTMWpO03ifZVZy2em3NfXz3vLv65wvu2l8uuI/vnXdrPzpXSUaV9qqUndvYdAcvhx2bCDa3aPLlwB/sDV6xhc/pOlV0S5XtUnaqzb4dLxH23MLA7Rfifvjipjt4se0e7w5av+im/Pk6x3awten298in4/0t+HlrfSJ+7srHtQmbZnZokm173zp7ZPXTc+7aNxeiy9rm2itElwJyV8frErbs8Icvb7rHG+NZdFegID90KbsrP09abhuErS/eRN47Ks5t29V1bAcbA/eYSHOCdx2DrW1zUhTTq22du/JxbcK2TN1bfvDMLW7fdXOfXHfHLlx275z9wB374IqbG/zEnfrVA7fy4HmW9KkNC1gv3xmS9dr1NTe/eM4vtE0k/snvL5hkWNqpW4YJO0a6JZkceGTY3d/GlmKhz1ch7P2t8YstyxpsrLud3e2xjJBwsr/V3RALY6qLO7OST9juttbU3s7eKJumTHqf7lbURW9uY91R9h27kHShc1c+rkXY9MJLKZteuvOtO3H5B56kiahjy7vXflqUY3m55srXQ8JeWBl16vkzw6z76jf9JuwcsLsCBbXZpeycTX06V+ro8g4pRdjSXiIUOXRmqSPrW7e7jG3JJ1YdLeVkW00uclJOLPu26KLLdOXjWoRNbynmCHvpwTN34vLnnqRPXPrUZ9NLt/d8naXbf3eLv7zvhscfZuVQG9SWdobepzFryqZfOX40TKKPT3q/SYad07UrUFCbXcrO2dSnc6WOXpWwyfa5jdG49+HLbbfT8sPkrmNb8kmb8WWM0rBSk4tbFzqzbm3fxdQi7DM3/pgl2pNbv/Nkffyjz93y/afxsoXhEL4gUFulIFMWDcKO33KXfJc63xXgUu318Xipo9chbPLD3NZ2eDDdVsYn/dtlbEs+kXo02eYkiMi6qY+60LkrH9ci7NL4NQ+FLN54FCdr42vrRNqWceyrKsNOPYBMHW8CHEtdBledMWwenztsMEvEPzl/MZwCyA+5hg+30uOkGnAEav9gRzx9J3sO9jbND8koe/RjiEKG73A0S8IwZuvr+/Hem2NDBywj97COSZCzVt9J90Y+SXX6tO9WXamj1yZsMV2wlKGl9bPHNoXhKrIZL4yv2DqVBVdph3UN/aLBXUhVnatgiGWX4sf2WNe1CHt5919ZIj52/iOfYSez6wqETW2VjGEi5nK8b11zva7W0yJsIpQdQUqxTpQkqrE53qP5xjEZw/HDdIZv0YPkHtIMicQQgCS/mA58LGXPeGcbuH190VAzGiQZs2y9pgeDuXnYUucUWaUwFzp8ZHYQ1bH4NOWLIDsxf7+ObJapfST3tQ/qtDO0fTRslLIx5Vd5vKrOVTDEsntG2Hli52GP3NpC2DIItG0lai6n67e9Py3CHmUhR0/Oj8hQdxTdkch+CbjHe3ecJ2U1V5gyI35Ilrt7YD2o89JsF/kEn57e+1kSR/OVU6TtyY/nK2+MZ49+3PeIgFN6yM627+1JT58j/zARp+wuET75sAlhM2bIZ7H4sE+1flVjG3vhqols6bsSmdZtZxTLV6e61um7Vp1H7W67EoZk/4n5uI6eVKdWhm0dEjl94w/ZTDxH1HzOMiSijWcitq51/bb3ufOlyCTXXgB1xSERBleqw1ObAVSR20o+R/VzektSig3bjOsxTrTSbvaRJ3WV7cpyqe1SfalHzh6SL8vGyNKXEaSe0ln6JiXHYo+ua9GP48dDQLKdcC6SYTeVXZX86uAz6B/BrbTTul1H5xKGgo4RH1v1ipWrRdjFh45f3BrOEFm/5pZ3/xkl7aXbf3PLd/8RPcdkTWvLQ0dtmJWouZyu3/a+JBMCaGqJgaAOYUsAxkiU7csRCgMuRUYsg9bcybX+Vj1YFrcZIxkuk1vnfMU6luyporOMayybzPk3Zwedk3WlbKt+sr4m/OBnRSZtyJYypN7SXlmmDj6D/lMk7JRtbGfQUfmYz9dd1yLs0rS+5YfP3fFLn3nSPvbd77lTP991flrfg+du6bdP3Mmf3XLH39vw87SX7/87S9qWaX3aeCZi61rXb3tfduwUWdNxTXikR46EUqDg9mLytG0sXwMwyDZ0ihQ5VNGD9OLy5AtNMlrv2D7bEiMBJuyST1iHUjmvr8iytf+G50djrVXtkT6Vsqvox/6Q9UmvEFtFJm3IlmSs2+WYNW0n6G/AJreZW1t0pvpWDFHZoKPycU4Py7lahG16ceb2nqNpfbEXZvjY/A9/UXzb0fLijDbUStRcTtdve78KQHXb3OliJJQCRQCWASwp+SnZWj/aTwE+6GHsWCk5uk0qR68S7/jvRmy7ffoeh/hmR8xXVl2s5XJ2s76SdCsTtvj+jKwb9Osgtm3ItsSwaTsBm0ZccTxSa4vOPt5H0y0td4BBR0OcUnrFjtcibBJUGsem4QzKtE9+cWv4xuP5S+6dtQ/dsfWrbv6zbXf65tfZzJrq1xm/Jt2YiK3rmGPaPDZpwmaw5LJ5fU6THMuwPOVOAb6KDPJ3Sg7HYjj9a/QasraB97UtXraxs1XRuaRvI8IO+o4/WGP92FbLWvuDZejY8nGLTC6jZZd8QrFo2k4g/MQMGsaLdW3RuQqGpI3ax1adUuVqE/YsffxJG2clai6n67e9D8K2ff4113FkJ6fhioO94RfudrZo1snwC2ypuwWK56iTp6cOUjlux9LRcvr6NsXX+mSWbMFXsEVlkawfE6ZlrUmVZWgb+bhFJpfRsks+kT5mGZa1bIf7E9Wr6teY7y06+3iGi2geQ9JG7eNY+1WO1SZsamSWPq8qjWYitq5l3S62GWCWcVHdfui4FWaJcMdrApYqMlKZZJChSEfbyPuy48iOyP6jDpoaFyUZOV/1ibClP7W9wacNbrVTMlLHOT6WtYyh1p3rN21H+qcJxlkfi85U1oohKtvURtZNrxsRNn5gMPrYlHas3GfCmRRhVwGW1FNuB8AZyDZlX+q4bEdup8oHXQok1QZhj3w3PhQh9eRtSRwxcpLn5QWI66fWwY6I70f6lbO8lPyUP9uQbSG/NtphG9rIsi06ky+r6M36tXFBkXFsRNgkCL8IK5N2iohkIFLbofNWyLDrEoXUgQFn6RBBR0WoUg95SyvbkdvcpgZ56risW2rL2tk4VqVsntpmvVJlpU5WwqbX/0lemzKln6Te2s919NWyLeTXTjujGTiWh4BaT7lv0ZnKWzFEZRkb2sey3TrbjQmbGiXSbuNXYa/rT3iZBCaVYVNMAolSlqa+DWwBCgOOiCPXIRjEVC5GSlJO7hvP7KOYHJaR0oM6HNvr9Y1c3FjPlAzpE5aVi5fUl9psmmEPbRDfNonYwDqO9GsW2xiZNJUtyS93kW7aDvmCY+pjXhPnXo6YnpnTmduzYChgViUxHMO661YImxqn4ZEmY9pU93X9jyN37hwBpAIYgB3pwDlQyCyG2iWylK/IUsfyf9mgjyllZQ+nzHndxQeaPMFQ3fBKefzBouzAntj0q+lEtlJORBf2n++Y6o8s/Fq6t/HouymxTlels421p3zn/Xb0dxN6jZ5fUa9D2CEG9HcWMS0xJkvio73YvhqzprJJz4BLmsUhMNOmDSyL4jrmO/8xsnGse50yPzAw69z3h47sNLmm2SOWKX/8NiOVtf4KTLbTp20mgEkSNvmHyYyILrfECC50OsoQVKfQsmKZmoyPJ+3CR6hIpv/OSOLjT6yPbpv2hxek1RFRxEi/QmfzvivaTGPIo2+OxEhWkl9Mb33Mf0fFeDfUWmwj/m4ie4i70TdmpI36DqxpO4wxqxzWJRorMe+dy9Fa6lzlos94LfUNtsG6bi3D1g3SCy/0luKZLx+5pa+euOV7T/1C23SMztV5KUa304f9aRE2+YbIUv+CioBIJJf7+asGHHUK+jSqBLOvn8igYnEJ/80T2aTXw/iJ1uhnOEXdoHMLhO19Rx+mUtlv+AXVQrXPq0q/8TbHIPZLq5j/9LG2Yqvlettr4oZlxUhUkl8o17AdlkPrgC/1JUby9wH9OmxvM5nxU/2Szq81YUtHYrv8YBI+go+AAWCghIHOMuxSwzgPcAIDwAAwUA0DIOxT1RwGgMFfwAAwMC0MgLBB2MU/+kwLnGgXxAgMjGMAhA3CBmEDA8BATzAAwu5JoJBpjGca8Af88SZiAIQNwkZ2BQwAAz3BAAi7J4F6E7MJ2IwsGhgYxwAIG4SN7AoYAAZ6ggEQdk8ChUxjPNOAP+CPNxEDIGwQNrIrYAAY6AkGQNg9CdSbmE3AZmTRwMA4BkDYIGxkV8AAMNATDICwexIoZBrjmQb8AX+8iRgAYYOwkV0BA8BATzDwCmGvnL3o6CAW+AAYAAaAgdnCAPHz28cX3f8B21peMXFAqiMAAAAASUVORK5CYII=;" parent="1" vertex="1">
          <mxGeometry x="-1258" y="390" width="364" height="60" as="geometry" />
        </mxCell>
        <mxCell id="agkJGMWgo49mgOo-eszO-7" value="" style="shape=image;verticalLabelPosition=bottom;labelBackgroundColor=default;verticalAlign=top;aspect=fixed;imageAspect=0;image=data:image/png,iVBORw0KGgoAAAANSUhEUgAAAUoAAAA8CAYAAAAAJfNtAAAOHElEQVR4Ae1dbXMcRxHOz0nFtiJZsl4oybISYkVxFHx2SACLooqgEi8xJX8gGMvyS4GpFAUxLkQAY/MDXPoR5qP+h/gdQ/Xc9V5fe1569uZk3+n5sDW7ezM9Pd1PP9u7szv31ttn5xw22AAYAAaAgTgG3iLjLF/awAYbAAPAADAQwUBDlEsrl938d97HBhsAA8AAMKAw0BAlkeS7syvYYANgABgABhQGQJTKILhY4GIJDAADGgMgShAlsgdgABjIYABEmTGQvrLgGNkGMHD6MACiBFEimwAGgIEMBkCUGQMhezh92QN8Dp9rDIAoQZTIJoABYCCDARBlxkD6yoJjZBvAwOnDAIgSRIlsAhgABjIYAFFmDITs4fRlD/A5fK4xAKIEUSKbAAaAgQwGQJQZA+krC46RbQADpw8D1Yly+r2rbu7Gr938l4/cwldP3OK9p36jfTpHv1EdgO30gQ0+h8/HFQPViHJ288du4Td/dUsP/2PaqC61GVfDQW8EPTBwejAwNFFOr2y4hd0/mcgxRKLUlmQAdKcHdPA1fD1uGBiKKGcuf98t7n3bmiSZOEkGyRo340FfBDwwcDow0JooidiW7j8bmiSZLEkWyPJ0gA7kAj+PGwZaESXdKtfIJBuS7D3XJJm4Dc8HUWf/lvvff++64xdbrjOzXDUTH6XscQuOmL5TM+vu8Ys974Oj/fWq9o/1aTlfS69aciw6j6LOKDDciiiHeSapyVEfk+wS4y1fX3Uf373krv15zV3/y5r7+N4lt/qji0UySvorqTu1ueWOXnYDiogttWnSY2cfHXReGQv/ptuU6BarO0rZsT7H7XxbIpna3mkwcLhd9wJHNmyrl7Z/Wzmd7S13eHDLHfUuIoz34xd0bsc93l6vfmHXutPxKDBcTJQ0U63JrfaxdTZ8+dOL7vo3a8FtdWv1FYIJGXWU59oS5dRMxx32CPb45S33eHMwqEYBBLbDKGVzH+NetiES2cbfDQQugMPaRfYxTKZbKqezvWNOCEJ6dTY77jERbKXsfBQYLiZKyytAiw+eubmdu27qkxvuzNoV987KB+7MB1fdVOcnbvZXD9zSg+dJsqU+LKC5stclydUbq2567qLfaJ/I85Pfr5lkWPppW4eJMkR2OZnsbGSU+UcROVvW/r2USKh/xkKTZQUugMPq2UavUJ9WOVRv96B/x0SZ4+F+x3XUhX1qc91RthkiQ2tfIT1j5zh2at5xFRElvSieyx4X9r515678wJMjEWRoe/f6T7NyLC+lX/26S5QzS/1gmp7vZpnXvhlvooyBgM6PAgjc3yhlcx/jXrYJ7r5dbzXZV60Miu3ZRi9uK0uLHFmHEoHD7XbPaqWcWvbo27reM/wioqSvalJEufDgmTt35XNPjuc2PvXZ48KdA99m4c7f3dwv77vu+YdJOdQH9SWdF9qnZ5KUPerf+HZcnz/pY84i2mSUKV1HAQTub5SyuY9xL0uDe7B+p8nCamY8ZNPBftoRl1UO44Qy5GGet9bSWWKKdatp3yKinL/5xyTBnd/+nSfJsx997hbvPw3Xzdx2MxFTX3LwoX3KGkGUg88vQ3YqOTcKkJX0Pw51S4ObJ3H4gsnHw5KMtlWpXro9H+fkcAJA+g+bBeb6Yp1KylFguIgoc88n+ZZ77uajMEkaP28ksrQ8p7ymMkrOJK1lifHb1GVAcYCUyOBnP8eBh/5WIPhZyBfdV4n42RjNPu5uxrMNLZuA7B/Wi5lMGs/RwZbbVc+iYuOb4of1QoYPst5MaKwdn/ft93fcEc2eqrcIuuOJXyyYlI5f7rjdmeVu1nXQt0ks0OO268koeD2o8WXvda6BybqAf3ncobKWXsPIacbTs2lIz9w5xhnjMlTKTLXEjyz7tWWUi/v/ShLgmUsf+Ywymk0WECX1lTM2EyLX42Nrye1GVb4uoiRy2xVkEAJhlCAG3tHsvy8YkkGEKcGs7WjRg+QeE3lH3geVpBLSgc/FxjMYYB13qMlazbTKDIdl65Kex1nfo5T6Sx1LyaaWXsPKiY1H+z53zGSmbSuPJbZK/Miyx4Ao04TKt9ep0kKU2hlWguR6un3t49dFlP0g7M1C9khIE5cEIo9dguzxwZ7zZEgzmYLIKBvhzC6VLbMeBH6avZezoTQTuktZIr8GFSFLH5iUefrZ1MFMmDJNJr6YHjLADv14KKMOZ6CSRGLj5v44oCX5sQ1l2dhTzXIzNkhOyA9SRi29asjp2/PV19akztZ9qVPKlv1+d1zOj43NK36QMZJb7ws3/5DMPFMEyb9Zbr21M5gAraVuX/uYgyEWxKn+mGRKb70ZUKkAbIAUuHXi36h9Sm+ZWYR0HNRjkODkuNlG1F8qUGQbuZ9rL/VIjYdkyrox8pKBndNZ1tU2GvgtE9C19Kohh/HBjzKkL9rsSzuk/C91z/mx0TFj1xJ9i4gyO5nzxe3ujPf6dbe4/88gWS7c+ZtbvPuP4G9MklRaJnP0QK0EyfV0+9rHMogpqGJbyPFtiFKCTgemHJskOU0IDLIcCZA8Bq/W36oH68R9tg2+lK1Yx9x4SnSWfk0Gt/gyS9uZxt4fdzw7q6VXLTl9neOPS9ivllLqlbSl+KopVW/Arq+LKHOvBy0+fO7ObnzmyfLMd7/nZn++7/zrQQ+eu4XfPnHnf3bbnX1v079nuXj/30mytLwepB3BBGgtdfvaxzKgYiRJ5zXRkB6p4G/AqoDA/YXk6bGxfA26RnYg29QyYoRbogfJ5PpkixCh6H71MY8ldHFgoszZhHXI1fP6Gr/1bvSK2JL7TJE41xlWr1pySvCh/RQ6LiVKix0aHVV8hPq3nivKKE0vnN85cPR6UOhFcz43/cNfZL/OsbxwrgdpJUiup9vXPi4Bp+67CbLArGgMCA0pGAASkx+TrfWj4xjIGz0iBKFlxeSE6tHnbrv+m+Idd6hmwdNEmc6ASnS26CsvIiG9tP1i2XQtvWrJafBh9K32oT622NLbqpdRxuwk5TY6GuJAtkvtFxElCcq9IkS3zZRZnv/idvcLnUsb7p3VD92Z9Wtu+rMdd+HW18lMktq3eT5JujEBWsuUYWr8dtJEyQBJZa/6Nx3ELMMyYxgDeYkMsnNMDvug+ypL/1M5PQY+1mPxso0BVqJzTl/ZL+mWypK531g9/n0Yf5A+teT0CTf+uID9ZikttpT2HBuifJMWxdCOsBIk19Ptax+DKG2fkKWChQOciIRuu44OujPgu9s0i95djSaWHZcEGPczLCExhlgnJnFLGSL6WnrVksOYjhE7j99apnwvZfQJOn1nQG1Kxir7SO0XZ5Qk7E1aZk0OjgnQWsq2o9hnUFmeq+j+OdBKgqcGQEpkyNtLmTU1Moy3ZzJYpBy2HwWlfpYq7ZWylTXAGp0Nt2tS35BeUm8LQXKdEE5q6VVLjvS55aIi/RTaz9mS21j9SPVLxsryc2UrosTCvf1FOFIG5oAJBUCqHf2WCv4YEErAFOu/kW0gudj4YudjfcbqN7pkyCtlK6tN+vXyt5SSLEJE2ehtsCHZhMcfuiDU0quWHNKXx0f6ygtbzL+p8xNNlDRw/BVEniw5AE6MKMU6lm0BXBIEDUEpIpNEEsqIdeBwnzpDiZ2X7XN99QkifcvGvgqRleyP9lmvUF0Z+Jaxk7yBNtqW4hWjEClL3ZJ6VZLT1Veul5q2q9QvtC/Hnhqf1Y/UB9tB4ynUv/Vcq4yShRNZ1vhLiEn9czEOvpMiSvJLQ16UzUS+QGH/hUoGGZFA6sE5AzeWVUg5qSW42EYhOSwjpgcFGY/X6xt4Q4D1jMmQNmBZKX9JfalPHdzcX2g8si+9n2pXQy/qr5YckiX19bZtgTUvR7xqlbqwcH8WPza4URcdbfOS46GIkjqi2/BhnllS20n9nxwOqlTgxZzVgDoQ/CkgDGRYvXUC5eeHRC5+RWn6fDApu7sAhdddrDXoyWng08PwhI3MFDyh6E8YieSknIAubD9Pgn4xj/6nh/z5IulHfz/g64RkGGe9yQ8D/Snbebv1VvKmb9P5U0ZNlI3fjLfd7P8Bv6lx1NCr1vhYXy9PrWzeXSjl1b978JNukYV7SU6DZ/rMU2BN9+V9bLBrI+9NIkoeDM2GW14d4q9vqK71Lx+4j3ErGeAnSZRkIyYRAlZqC13BB0CmAkHLyt3aeLLMLM5BMv134OJbculn1kf3TceeJLeX+4GmCMbbooAouT5/fx7s03+THl4UQ5KdJlA5pth+imQpo2qrl+yvlhyWacUa2zJkF44TrsOlfHw09hklG4xLelGcvqqZ//KRW/jqiVu899RvtE/n6Lc2L5Oz/HEqGQAnTZRkoybzU6vlkC7+j57UQhdsVyYmJkEKBFrCn8FLJf9RFLfJlc1/oogl0rwexqXagkuCibaNzhWI0tuOFuyg/3CR+vLfHPBSbYFl1ho91AIYOfvw74wXb2O1qtEwerF8Lv2CJC3Gx+1DZeNjhbcuXijr34pmiyQvRLgTTZQhI+JcfuIHNoKNgIE3FwNDP6OEc99c58I38A0wUAcDIMrZOoYEIGFHYGByMQCiBFFmV5IHAUwuAcC3Nt+CKEGUIEpgABjIYABEmTEQrri2Ky7sBDtNMgZAlCBKZBPAADCQwQCIMmOgSb5KYmzIAoEBGwZAlCBKZBPAADCQwQCIMmMgXHFtV1zYCXaaZAyAKEGUyCaAAWAggwEQZcZAk3yVxNiQBQIDNgyAKEGUyCaAAWAggwEQZcZAuOLarriwE+w0yRgAUYIokU0AA8BABgMNUS6tXHYXlt7HBhsAA8AAMKAw4Iny7bNzDhtsAAwAA8BAGAP/B5WAZif7yYELAAAAAElFTkSuQmCC;" parent="1" vertex="1">
          <mxGeometry x="-692" y="-355" width="330" height="60" as="geometry" />
        </mxCell>
        <mxCell id="agkJGMWgo49mgOo-eszO-15" style="edgeStyle=orthogonalEdgeStyle;rounded=0;orthogonalLoop=1;jettySize=auto;html=1;exitX=0.5;exitY=1;exitDx=0;exitDy=0;entryX=0.5;entryY=0;entryDx=0;entryDy=0;" parent="1" source="agkJGMWgo49mgOo-eszO-2" target="UeKgmQtvJm2V4L9KuCcI-30" edge="1">
          <mxGeometry relative="1" as="geometry" />
        </mxCell>
        <mxCell id="agkJGMWgo49mgOo-eszO-2" value="" style="shape=image;verticalLabelPosition=bottom;labelBackgroundColor=default;verticalAlign=top;aspect=fixed;imageAspect=0;image=data:image/png,iVBORw0KGgoAAAANSUhEUgAAARQAAAA+CAYAAADqMOSdAAAMLUlEQVR4Ae1dbXMcRxH2z0lFsiJZsu9ESZaUEAvFUfBZeQEsiirC1fESU+cPgLGsWC4IlaKSKCmOAMHmB7j0I8xH/Q/xO4bq2eu9vtbM7OzerM63ej6s93Y109Pd8/QzvTO74yuvza8YHPABMAAMpMDAFRKytrmDAz4ABoCBiTBAXJITyur6LXPje2/hgA+AAWCgNAaIP8YIhcjkjeV1HPABMAAMlMbA9dW3QCggUAwgwEAaDIBQMAqVHoUQfGmCr4l+BKGAUEAowEAyDIBQAKZkYGriiAubymVjIBQQCggFGEiGARAKwJQMTBjNy43mTfQXCAWEAkIBBpJhAIQCMCUDUxNHXNhULusCoYBQQCjAQDIMgFAApmRgwmhebjRvor9AKCAUEAowkAwDtRHK4pt3zMq935obn3xmWr//xrQ//c4e9Jvu0d+oTBNZGjZhpL6sGEhOKMu7PzWt331tVp/+J+qgslTnsnYA7Ab5NAkDyQhlcX3HtPp/jSIRF9lQXZLRJOfCFpDFZcNAEkJZuvWBaR98W5lMmGBIBsm6bJ0Ae0E8TcHAxIRCBLD65NnEZMKkQrJAKgiwpgTYZbNjIkKhR5QUmUlOJsN5F5KJx59iUukcPjD/++9jc/Zi33SW1pJmdnXKbkqQLSxtm+MXB7YPTg+3k/r/InxURx9PRCiTzJloEtHXJLuMU9f2Nsy7jzfN3S+2zN6XW+bdTzfNxk9ulpJRpr0yZRd2983pywx4RAChQ5MDd/rpoHPOFv6brlNGN1/ZOmX72py1+1UJpdPdNyeDB+Z0SEaMh7MXdK9njrvbyQcIl2/r6OPKhEIrM5oEUl/Hrv6svX/T7H215Tw29jfOBaLLuXXeq0ooC0sdczIkorOXD8zx7ngWUgcg2A91yuY2Zv1cllA63V70wOLKeDq7HXNMRJQoG6qjjysTSszScPvomVnpPTYL790zc1u3zevrb5u5t++Yhc7PzPJvjszq0fMgKVEbMaC7fZCRyca9DbO4ctMe9JtI5r0/bUXJiGmnahkmFBcpFMnkTkeGUvwIWOTL1H+PJRQq1x+MMlTKRE4OO6ajBoiF3W1D2YuLNGLbKmMjYytlhluJUOiFtKJspHXwrbl6+0eWRIhIXMcbez8vlBPz8tudzzNCWVodgW7xRpa13P1qtgklBJA6AMHt1Smb25j1c0yQyzI0oJx0q821SDmNy1DoLdcQobSOnpmrtz+yJHJ1532bjbQeDWyd1qO/m5VfPzHZ/adBOdQGtVUEPJozoWxEl+PHIH3/oq8nyVBCutYZ9HXKDtk0S3+LCXL2I82TnHTHH1nL2BrTVhl5VJZ1m3qGcuP+X4JEcK37R0sm8+98ZNpPvnOXLXjcYcKitoocRVkICKU6WF3+rQNsrnZm+V5RkPNAQmQyaVZR1FYVP9bRx5UeeYrmT/hRZ+X+Z24yiXwtn0glZh7lrspQODOJPVfpjDJ1GFhV5lD42ftsglUeu6rwIlti5hUFWk3o7/rTbw02ArSdVBQrE2TP6WDf9NVcgM83CzypKGTYYBuubPjq8X1b/7BnTmk1RK2aZfb4SXWh28uW2F/2TH9pzdgAHYx84gt4v++GMgLLxnnfDdtkO8qcuR+431xnmfmUsZNlTz1DaR/+K0gUc5vv2AzFm52UIBRqq6gDmDi4HF/HnrleXedpEQoFTV8EjQuM3kAae8dl9L6FS0Y2NxAI5gg9SO4ZkZznfRq54uXSge/57BkPtI450aSmVk5kRsCy9ZnmQ3zvoUh9fTrF4I2DXrctr/2EEraTZc8QoYSJhx9rQucYQtEdE0skXE7XT309LUIZjZDDVYVhsGqikYBk2yXYjgcHxpIGrUyIgKfRmzOFUPbFelAQ0GqVXN2glY0+ZR28PO4hFRuglMnY1ZHxzIoyFyYInx6SUE6sPZShuUlQkonPbm6PA1uTxqi988v97OMyZ6mTbkvKGbXbM0V2yj6W/Srllf1d6yPP9ft/DmYyISLhv8U88mijmShiz7p+6utpEAoDiwDvIgyyMQeUIyXnv1F9X5CSDDkSux7LxvUYJwLpZ/aRJR2VLchyvt9F9aUeIXusTcPHo5DvZIC7dGb/nTl867MhdF+2F0MoRf1GbeU6JnzTuhKhFE7KfvwwW+HZ3jPtw386SaX16G+m/fgfzr8xmdA5ZlJWd0QskXA5XT/1tQQ7dbTvcAGdR3dXsPoAIcHnqsf2STLQpMOyXcHC9fnMwar1j9WD5XCbVYMw5CvWscieMjrLftVBPqkt7BM+S710W1yGzrF2Utlcx2kTStGycfvpczO/86Ellbnv/9As//LQ2GXjo+em9YdvzLVfPDTzb+7a91TaT/4dJJWYZWPpUPrNRBF71vVTX0vg+ciE7uuAJD1CQeIDBLfnkqdtY/kapLnsiBHWR0xl9CC9uDz5QhOc1tt1zba4SJQDrcgnrENROatv4FueMv5z2aLvlSWUGP1zHadNKFEvtj0aGFo2dr3QxvcWf/yrwrdlY15s086PJRIup+unvi4DUt12KEh8gMiDJwIoPvk+2Vo/uvaBPdcjgpRCcnSb1B69ht6338T0zIla9QkTin/i1+qgVoN02/LaZzeVyf0XabuU6/odakuWL+PzXMcInMg2Qr8rPfKQwKKlY3pcoUzl2scPszdmN3fM6xs/MHPbd83ihz1z/cHnwcyE6leZPyHdmChizyEHpfjbRRMKAyWUDem/6SBkGTErAD6wl5FBfvbJ4T7IlnBHr7BrG/ha22JlRxJFGZ1D+o4Ce3qTsr4Vs9yfYyt57glqLht7rkwor9LHgdrYWCLhcrp+6msQStz2CqEA5UAn0qB0/nSQrfj0u7RqlH2d68u2qD9HAR7OULidSYjUtie+MK/y+KYxGPKNLBtrJ9UpY6tsI/S7MqGQ0Fdp+wJpJBNF7FnWreP3tAglJih89pYBm28OJZcRmfbLoJFByP4jMtFzPVL/V4pQ5JfiCR4ppG9CPphpQsEGS6OPESWw9W8OiJiJMl03FCR5wCrAlgGVbo+vc9kRZOCzz3ef29BnX/lcF2Wnrh/yVaxPRuWKH1UkkbqCnPUmIpQEqfWOub4UhEKOwBaQxaTiC5QYIIWChAGrMxEJ9KpAZtkxwZDrqAJe6uGa19D2c5vaHt99Wb+orRFRhB95uK+KsiFqm/XylR3TKYKYpT3696UhFDKcSCXFVpBN3aSaQXpRGQr1SR7kBGTPG6EatPJaBkvovRAOVB/xSDmhT/fZRy45LMOnBwUb20v1XeTFevpkSNtZVqi/pL4+QiGZ3K7Vq2JfWDliidplH+vP7cXYmftVDQQsq8p5ojkU2SA9/kwyp0J1m7qPLIMvBFDpS/k7B3fJjwPHR8dsHw75ejUFod0BjF57D8rOPsSzuou9PGwQj70y7554lSOrDTz96j2RgZTj0IX9Z4PSftQ4WpHg1+5JP9pW0ZZxyYhc5SHfj7U33MOEfWf9Ntx5jb494lfwXY883I8U5PxpQeYD+qDy/DaPdnLZs8ESycoJgHbvE33B7VjdS9iZy3sVCYWNotWfmCVlfhuWysZu9chtzNqZAXqRhGLBJb5xISD7DteINwY2FRBajn5E0f1jSaXgI8Us0Ma/FZJyWB/dNl1bMumujQJuQkKxviu0mR6d/B8HSt2tvMi+YPtcBMU44jJ8lo+1jclQtAPphTR6yxX/FeloxLtoQrFA5gxAfV1LutgNkdUHf9yPHMBMFrz1AIOYzryhMtcpOud7ooqtB6wekVsgOLcSEHVznRMQivUdfbhIe7hKfXn7Rt4CIbB9gcsfuQ9Uf2T+pCxr35t9ZDqNPoTkvrgUhOJyJu4VT+DCR/DRLGMg2RzKLDsBuiOIgYE0GAChLKdxJAAJPwID6waEAkIp3BEPgQKyjMUACAWEAkIBBpJhAIQCMCUDU+wohnLNzXhAKCAUEAowkAwDIBSAKRmYkHk0N/OI7VsQCggFhAIMJMMACAVgSgam2FEM5ZqbyYBQQCggFGAgGQZAKABTMjAh82hu5hHbtyAUEAoIBRhIhgEQCsCUDEyxoxjKNTeTAaGAUEAowEAyDJwjlNX1W/YDH/oDDvgAGAAGymCA+OO1+RVzhf7BAR8AA8BACgyAUECoGFCAgWQYAKEATMnAlGKEg4zZzpT+DzDzA5Ij7zWlAAAAAElFTkSuQmCC;" parent="1" vertex="1">
          <mxGeometry x="-1719" y="45" width="276" height="62" as="geometry" />
        </mxCell>
        <mxCell id="agkJGMWgo49mgOo-eszO-12" value="" style="group" parent="1" vertex="1" connectable="0">
          <mxGeometry x="-727" y="-176" width="422" height="178" as="geometry" />
        </mxCell>
        <mxCell id="agkJGMWgo49mgOo-eszO-11" value="" style="rounded=1;whiteSpace=wrap;html=1;" parent="agkJGMWgo49mgOo-eszO-12" vertex="1">
          <mxGeometry width="422" height="178" as="geometry" />
        </mxCell>
        <mxCell id="agkJGMWgo49mgOo-eszO-5" value="" style="shape=image;verticalLabelPosition=bottom;labelBackgroundColor=default;verticalAlign=top;aspect=fixed;imageAspect=0;image=data:image/png,iVBORw0KGgoAAAANSUhEUgAAAXwAAAA8CAYAAABlyAESAAAPxElEQVR4Ae1dbXMcRxHOz6FiW5Fs2ZIo2bITEsVxlPjskAAWRRVBJV5iSvpAcGzLLwWmUhTEuBABjM0PUOlHmI/6H+J3DNVz13u9ffO6Oyt8t8+Hq9ndm+np6X7mmd7Z2dk3vnN60eAHGwADwAAwMPsYeANOnn0nw8fwMTAADBAGQPi4w8EdHjAADPQEAzXCX7181eAHGwADwAAwMHsYmIjwyckrF98zF777Dn6wATAADAADM4IB4nUn4RPZv3XuIn6wATAADAADM4KB8yvvgPAxsGFgBwaAgT5gAIQ/IyN3H8CKNoKUgYF2GADhg/Bxuw4MAAM9wQAIvyeORmTULjKC/WC/WcAACB+Ej+gOGAAGeoIBEH5PHD0L0QnagCgbGGiHARA+CB/RHTAADPQEAyD8njgakVG7yAj2g/1mAQMgfBA+ojtgABjoCQZA+D1x9CxEJ2gDomxgoB0GQPggfER3wAAw0BMMdE74829fN4u3fm0ufPHELH35zCw/eG5/dEzX6D/Kg5G73cgN+8F+wAAwEMNAZ4R/buPHZuk3fzErj/+d9KO8VCamMP4HqIEBYAAYaIaB4oQ/f/GqWdr5YxLJuwYDKksy4NBmDoXdYDdgABjwYaAo4S+8932zfO/bxmTPAwDJIFk+pXEdgAYGgAFgIB8DxQifCHrl4YvWZM+kT7JA+vkORSeAzYABYMCHgSKET1MwJSL7iuxH8/4kE9M7cfAO9nbNf/9z3xwfbJrBwmrRO6MuZftAOW3X5xbWzdODe9YHR3vrRe3fxhal9Colp01b+li2i75XhPDbzNlrktfnJDvH2as318yH9y+bG3+6Ym7++Yr58MFls/ajS1kycurLyTu3sWmOXg2JgQg69NPkzc4/2h9MtIX/02VydPPl7VK2r85pu96UEOe2tisMHG6VHajJhk310vaPyYnh+vhg1xztb5qdjfJt1LqWOB9sbZrD/V1zNBrEuZ/adhxsm6db68UDK5feXfS91oRPK2s0SZc+T129s/rJJXPzmyvO39rm2gRRuozc5bVYx2BgUSrJe25hYA5HA8Xxq13zVHWcLoDBduhSNtcx7WmMEF3tk2Wsvx0DuatczjVZR5s7j5icHFxTwFL6LjTHJqG8g63t5IDMZc/BxsA8pYGi0F1eF32vNeGnLL1cfvTCLG7fN3Mf3TKnrlwzb15815x697qZG/zEnPvVI7Py6GVw0KA6Qo7i/67dG5L92q01M794yf7omAaBj353JUkGy+oi5Y7hIu1Yfex8RPjxKa6YLUv/HyNEV32MBR7km2DCJVdea6KXLM/HMTncFl8biAgPD4bTjl0Nbqxrk5Tat7M/vvOmSP5wb2AGKrCa21g3FP27SD1moyZ6cZ+XwV8TObJMK8KnF6Zi0fzSvW/NmWs/sCRPRO/6vXXzp1E5KS9nXf96SPgLK2NSmL8wjPpvfDPdhC+dpo+7AAbX0aVsrmPa0yadfWzX3SqqLBUZsj2b6MVlZRqTEyN8liVJtYspLK4nJ5VtowHrcKvZMxgpp5Qfxxgp92yuFeHTW7Ihwl969MKcufaZJfkzVz+x0fzS3X1bZunu38ziLx+a4fXHQTlUB9UVcyTN2VM0r/PxNI++ftLnqR0jV68ugME6dCmb65j2NLez1/MPquiyZCRHNq3X04zIUuSk4ro2NdnBFFYTHDG+6c6jzSBUytayDaxbSVy0IvwLt/8QJOqzW19Zsj/9wWdm+eFzd97IdA4PKFSXNIbrmKJ4EH7ZB2NdgM7lu2m+ltvZ+WEtT4HweVvS0TbM1UuX5/OYnHTCH69mKklirGduynqT3dtG5TEb5epG+bvoe60IPzZ/z1M5i7efuMk+cdsFIv2UefwbKsLnyD41beKUnDIMMO7oOWX5dvjYERmlAsOuPhBzqRboB9tmZ8Mf/WnZBGz7cEusYKD25KzCmOOHW0IG60IrIGJ2seX3ts0Rrf5Qq56ObHv8gx6T6/GrbbOzsDqMgvfH88u+ju+33UhGxrLMypejZbRtIt9SerWRk4Nr3Xb2dVO/tMFSpcsIC6xLTsr9g/Dr+8k7h5x2suySg2Mrwl/e+2eQyE9d/sBG+N7oPoPwqa6YI5jYOR+fp6Zcrqs0p2NoHSpwNiB8IukdQWouYHqJrrbGfxyhuWQM50ADZJugB8k9JtL2vE8gydGlA1/ztafe4ehh4vhhHZXV5WTkxrJ1SvO+qevwpf6yrsq/ieRTSq8SclJxLevSgUsTv8QwTX7yYcnnB93vYudMyhoT8txP+GH8sewpJPzwwMDTNqE0hfC1c1KJnvPp8qXPUzuGq96KEBoQflWWHkrR6oMRmVIHlJ1GApN1kKB7un/PWFIXMigfRYccaYfuXlgP6gx2eZ5YBUErIHYoauflpx7Stx2V1kLbVRT1uwGK9pjAfXpIYjm07aE7HPcgVSMoZTtuN9fHHVySONtQppU91fJaxgbJcflByiilVzE5o/dLfDZn3WUbtZ1y/ELy2mJpXN/kMmfWNyeVttRtk3LG9W6bGP4qrBR8obJVhJ86pXP+9u+DdwIhouf/UqZ0pGHpmIk8NdXlS58z4GMdw1UvA1xHRpQ3BAwGWIhIqvKO6JL/o/IhvWXE5NKxrkedqGV72UZUX6jjyDLyOFZe6hFqD8mUeX0kLDt6TGeZV9uo9l+kg5fSq5icBMKvtc+BM6lLnl+aYYlxzVN7EkNNjmX7QrjNaWelYwQPOfq2IvzoQ9vP7wxX6KzfNMt7/3CS/tLdv5rl+393/sdkT2nKQ1vd8FSi53y6fOlzSUZEDr6fC/BNCF+CUBOMbJska01sDLoYmZE8BrPWP1UP1onrbNoZQ7ZiHWPtydFZ+jXY2cWb1trO1PZxu/1RZym9Ssmxfg8QPtUjn/kQNlxt78IvdZvWpwnHtq5fZwzmptKeQQyIt6tD+Wq6vy6EH1uWufz4pTl99VNL+qe+97E59/M9Y5dlPnppln77zJz92R1z+u0Nu05/+eG/gqSfsixTO4mJPDXV5UufS2LwkT1d14RJeoRIrAKvAgbX55Kn28byNQgr2Y6oTMvwDRw5epBMzk+2cJGDrlefc1tcgxwTS8wmrEMsn9U3cS+dSi+PLbnO0GDEedrqVUqO9lcurtl3XfhF6yaxlINr1jGU5hJ+iv8qHVW/DukR+69VhJ/04tXdfUPLMl0vXPG1+R/+Ivq2bcqLV7qxqUTP+XT50uc5nUzXXZFFxhx+1YkSAOOTnwM6H+grPTxEp9vqk+PKR29x7ti9T7bt25z8DMAOnA5bpeqSmo90StFXDoaugUjL8d3dlNKrlByrt7hzcRE+raaiB9v87Ej70coYRb6+dnOZHL2tXM9gXOE6EZNcvy9NwYDVJ7GdlLfSMaH/+vTS11sRPgmLzePTdAxF+mc/vzN84/byVfPm2vvm1PoNM//ptjm/+3UwsqfyTebvSTcm8tRUG6f0+UkTPgPG1Ql91zQZsYyUlQI+0OfIIJv75LA/hksI66trXO3RbbGyEztcjs4xfWW9pKeMNLlNnHK9vnz8fxt/UF2l5Ni2BaZ0uF2xNJXIc/S2unkIf1yff/osprP8PwUDVp9E/FHe3LZKfXzHrQn/ddo8TTcyleg5ny5f+hyEn/aKeKjzcCcgQqTb4qP94YqdnS3a+2QYRfruVsif444enrvletoSK2OIdXINTL5rrgGrlF6l5FibTiPhi7uS0ADM/oulIczKsqn4ozI5PpJ1hI5bEz4Jf522R5aNZSJPTWXZLo7/X4SfQlq+9uaATk5byE5UyUi8fZadR8ph+xFB6mcNUn8mVxdhpna4SueE22mpr0svqbeP3F3XXfO8pfQqJYfszu1z6Sv9EjrO9ktbLMkdaBN8HNLd2sBzJ6HLpbaTyuX4SNfjOy9C+PgAynizNp+h6XqbjhEiMR8wcsDl07uSndDBfO3zXffV6ctf6RLpoCFbpdpknC9+yy8HOhfhV3on2FDixDWwldKrlByp70kQvg8buVii/OwXsrMMLHyyQtdjgz6XHds9fIcp9WsTsHG9nBYhfBKGTxzGST8XrOwkSkMkxsDVwJBE1BTQLDulU1Q6KkKWeriibtlOOuY6dXt812X5WF2pHY595SJdWZ/U15VXEkFK20lerYy2pZiKcA0uUje2l1OvQnKsvic4pRPzr2w/HbMNNJas3jLKTxyMtXw+lz4L+SUVfzHdud7ctBjhU8VE+iU+dTirHzFnEmkSCVVk6lh5EgJ1VY4A7XmjNAQalk2kEVpBwUCmfK7BRcoJbUHLNnLJYRk+PajTcXutvg5bsZ4+GdIWLCvkL6kv1ak7O9fnao+sSx+HypXQi+orJYdtELKTbp8+5/am+IVxMLRp2otXLkySDlyvxUvDPmLliCmd0MDO9eW00zVYafulnhclfKqUpnfazOlT2Vn9jm2bjlF1TgeJcQdwAaMWEY32+5bL44gk7Zd6aFuDoOzhRmW2U4sNzizJ1rZEcD+YlRGQJUb68pEYgCbkOHRh+9nOqTZJ420VSD/6PJ3N45KRsUqiVp+ynbXb6AtJtF8Lb7GgCb/yW2YEWfObakcJvSxJiSjf2k0snUxtn5RzUoRfAkuSIImE5XLe4UaAk8tI7aIAzwdQSF7VD2nbDNFHdF3V4OLZL4rzV/LUXR7/3yQtTvisBK3eSVmyyW/TUt7UTxlyHdOWckdt0jEq4lCdn2wQAwaTIQEt9HNFJjXZqmNoWa4BR/rIdtTIJm4kM/QZPNZH103nQ9JaHdvDYaucCIt012Sg6x1uzuXePE2Sth4IpF18x5XPHYNFG71kfSXktME165LtF4qoW2KJ66Y0tY+w/13+ZDtwHk7l3UVOOxnrsX4l2xE77ozwuWJ6YYrekr3wxROz9OUzs/zguf3RMV2j/5q8VMXypyllQJw04ZONiGzt5mRqd0jShbYUtpuROSIODTrqGLqj2fKeiMbln+rbn2JrY6tH4oeunVv5irKVzgUI39qONnajb5VKffkzeLzFsmN75EoPtVGayyaua4wXIg43wTTTS9dlN65r0D6Ww3o2wXUlI+POi8tQ2hZLUlZNnuon1gfk8/1Nb/RO5V0DR68IXxsU5/GHu7ARbAQMAANdYKDzCL8LpSETnQEYAAaAgXwMgPDP5RsNQIPNgAFgYBoxAMIH4Ue/JDaNwIbOIGRgYBIDIHwQPggfGAAGeoIBEH5PHI1oZzLagU1gk75hAIQPwkd0BwwAAz3BAAi/J47uWySD9iJ6BwYmMQDCB+EjugMGgIGeYACE3xNHI9qZjHZgE9ikbxgA4YPwEd0BA8BATzAAwu+Jo/sWyaC9iN6BgUkMgPBB+IjugAFgoCcYAOH3xNGIdiajHdgENukbBkD4IHxEd8AAMNATDDDh/w9C3ZCafb/N6AAAAABJRU5ErkJggg==;" parent="agkJGMWgo49mgOo-eszO-12" vertex="1">
          <mxGeometry x="19" y="19" width="380" height="60" as="geometry" />
        </mxCell>
        <mxCell id="agkJGMWgo49mgOo-eszO-10" value="" style="shape=image;verticalLabelPosition=bottom;labelBackgroundColor=default;verticalAlign=top;aspect=fixed;imageAspect=0;image=data:image/png,iVBORw0KGgoAAAANSUhEUgAAAQ8AAAA8CAYAAAB4tj+JAAAL/klEQVR4Ae1dbW8ctxHOzwkiWZFs2XcqLEvKi1XFudRnpXmpFRRoIlzeXJw+tHEsy5bRugiKNm7Qa5Kmdn+AoB/hfNT/UH8Hi+He8Eb0kBzyVqfT3XxY8HZFDmc4zzyc5XJXL708u2jguLq6YZaWr5srv3hdDx0DxYBiIImBlyh5AHG8emlZDx0DxYBiIIkBJQ8FSRIkOqHohMphQMlDyUPJQzFQhAElDwVOEXC4mUivTVeGouSh5KHkoRgowoCShwKnCDiaZUxXlsH5W8lDyUPJQzFQhAElDwVOEXC4mUivTVc2ouSh5KHkoRgowoCShwKnCDiaZUxXlsH5W8lDyUPJQzFQhAElDwVOEXC4mUivTVc2cirkMf/aTbN4+/fmypePTeOP35nmg5/sAb/hGvwN6ijYpgts6u/J8net5HGp9ZFp/OEfZunRf0UH1IU2CqrJApX6czr8WQt5zC9vmEb3ryLC4IgF2oIMBd10gE79PBl+Hpo8Fq7/2jR3vy8mDiQTkAGyFFiTASz14+T7cSjygGBfevh0aOJAAgFZSiCTDzollsnwcTF5wG1GHRmHI47+OgnI1FuYswVXe2/H/O/n++b4YMu0F65qNqhP5FgMFJPHMGscPmH45yA7Z3a6urli3r6/am79bc1s/n3NvP1g1az85lqWjJz+curOLbTN4fPdKhif75gnrfJgnGttmSMnq2O6pxTYdZAHyjjqtV/wA7UDSMo/jg92zFFvy3SHGKscH2ndssmqiDzgCYkf8HWfS5/CXH33mtn8do09VrZWXgDuqIFCycPO5kwwSXXCgLRynp8debRbbfOkt2OO9tbZ8aU2HzOEmSIPSiZAPqeV/aTsQL9I62H9aSmLyEPyOLa5/9Qsdu6buXdum5m1G+aV5TfNzJs3zVz7t+bSF/tmaf9ZlICgD4kTbuxWxLFye8XML16zB/wGQnnnT2siGZJ+SuvQQKqCviz7eFHO2ZDH3MK6eXJQZVIh8oCxQqKLZR4csdi2rbY5PKhunYYl3JDfpHZI64X6meTr2eQBm7tSWUZj93tz4cYHljCANLjj1c3fJeVINpLd/KYij4WlQeo1f6XKRm59Oz7kAYFyJAi6ENgwGG1K/3zXHJ9R5lFHMGHmESIPHINuryIpIJDD7fLbPZRHS6kd0npU9rT8ziYP2B0aI4/G/lNz4cb7ljAubLxrs4zGvZ5t07j3L7P4+UNTXX8UlQN9QF8pR8AaB2QZfj28lfGvj/ocMwYIlMNefyEyM/BRBgTRUa9j1z2mgTyo3cdD3O5xPpeSgrQe18ekX8smjyt3/hIN+ovbX1vimH3rfdN8+BNfN3HLguQEfaUcANnFeSCPavYcLJ7GUn7f5rntTn/BtWO69PcZLJjWEUzSzIP2VfeTHyo75gtpPd9n03CeTR6p9Q68XVm885gnDuHWdSAQybrHLS/zwIxDWp62k+nsCam3u/0QZh8+eE8QiUceft2YbXhLwM3oTkfyqBavAQmGDnprEZMvJQ/Q38khuqBdc7Bwu9cxR/B0pv8UCnU7OuiwT2ukdkjroS60bG9vnVizAZ0qffgFZmjr+9X6sp+p2vZkcRp1Q99B3S4sYJMxOD7omCfb4f6ovqW/s8mjuffvKCnMrL5lM49g1pFBHtBXyjAkCayH59IS251W6ZMHBg4AggZbqP8BqKqF1sH5iwumk0Ye1B4MFBwnOq5IGFzpZxUYeFxdvEZJHq9xpe8/DGKuLl7z9XH2nMgoYcF4sN4DbWk7tAHGhOIJ+6AlbYd91VWeInnESQZvTWKlhDz8gZCSBtbz29d9TkGOYIvNprR/LnjOijxQL6pTDJjORmatAgGfWjDFen7wgC52XGF23WubduvkDAsZCQZfqA+pHdJ6oJOzGda3QK9+ZggyIDPAoEYc4Jhaewh5HPb6C+KBfS4D8ujYPUSQZXTJGLRbkPnUs7eI6uj/ziYP6W3L5Tt/jmYoMdLAv0luW3yDkBSkpd++7nOOPGhQcEBCHbAeDYBpIQ8atCWLwzh2HPHA+FL5MRIU1+sHP/QX8qkLeuaWFf0K7am/EQu0RDm2LnM7Z+0jGwpj9lG5ub+zySO5YPrx3epJy/qmae79yBJI494/TfP+D+zfkDiglCyY+gZLSQPr+e3rPmfJg+yV8NNx2r+bycjsjSDjAkoKdOiDk419Izi5RUppHzH5GNhckID89jasYwxmzlAwor6hMqoD8UEsuCT20joxf3JYQN3RryGyw3pQon9iRAX1nP0BgqEyS35nk0fqUW3z0TMzu/GeJZCZN35lLn26Z+yj2v1npvHVd+biJ3fN7Gstuw+k+fA/UQKRPKr1jUZSkJZ++7rPQ4BBsHABBDpggPkAGbQb7ZoHjgsNlFjQOeAS4nMyyKwI9oWO0NignFQZ1aFO8ujbI9EXdfLHbuDX9CZCJA+O3OmYSOvRNjm/s8lDtEnsXs/Ao1pucxhem//ws+QuU8kmMd9YKWlgPb993edB8iDg5WYrBJkPkAHIJpc84OnJ4fa6WzNI+cRmK6226cJTjl7HPuk48eSBIzAy/n4g0/4kZOl8IpjhnV89nZwM5paG6gO/paSQI9PvQ3KeTR4gNLXuAbcckIFc/PhutdN0dcO8svJLM7N+y8y/1zGXd76JZhzQvmS9A3RDUpCWkkEapk6IPEBmyLklbaw8YUBA3RCI4W8xcEqCKSUfsyrJTA2yQkf1SPTkUwkui+HIWWqHpB6OF9d36JqvUwgLnO3Yny/Dr5sj028rOS8ij3F6Mc43UkoaWM9vX/d5lAjIG7d09nPgYGahGCAkQEf7zjt54BhBcAIJwc5bePLS3a6evsCTjpiN0rGS1KO6hMjCv+4Hfsyv6DMssT9fBv4dyxyZ2CanLCIP6GCcXsmnBiMpSEva9jR+x8gD+nNA6BMFrU8JBXWLAUICdJQTCyynE5OGS/uIyR8288D2EJDcGElslNohqRcbL9QlVcb86rd1/Xm3Pn69HJl+W8l5MXnox4DC6TQdeEoG3FMD/+8ph8f+LgE66EbrcbOXA+eYkkdMPzr2UQIT3uLRsQoRVcwnVJ/Y7xwZzv7zSh4wEPoZwjSB+OTAAciB4WAr+bp7CmQuYJjAx77pzD2p5EHHnbNRQgowXpJ6tC9ugsBxj5Upv9K2Di/nmTzAICCQOj5HOKkfQJYAiwYz3sOHvjiWApkDFvMRHvAXDQbbFwNAJ4MhINqeC0oEuSMxRj7aW7pg6vRj1oTQRuw/ZKPUDmk97M/uvwnsDMWx4cqUX2kbZz8ztrRejkzaTvq7+LaFdgC3MMOsgUDbSf1uqYQ8YCwRfCGw43inAEH7s8FJXo7CbdsAcNgCHerLgZMhD9DD/R0IishHHak9HMEMSx7Y3urvvQA3sJF8AiEQZBI7pPb64+4/agYSsl8kgxf5GH1SfqVj6/Rm5NB6OTJpO+nvWsgDO4OnMJLHuLiLFOpKPzeIfZy3koIqltJiQKRmYwkgsA4El3+AfNADyYoLbgfOAHmgrr5sal9MPrZP2RrzNero6wDnaCPW4WwE2aiHL4PakVdv8E6NL5Oec/qgz7idw/44pOzC+jkysU1OWSt5YMewuQt2h+q/m4TbhME3PHxQ4nhhCQHnbwrDv2EpBUQ1Aw9exgLw0tfUY8HtwBkgD9AFZ3gaFNS+mHwM2mHIA3RgX30nH052dkRm6JQdbtzJy3ZoM7XX1YOX4OxnAk7uPwFbYfzti3zepxTseJIX41IftpbYlSsT9c8pT4U8chTQuulFVx0jHaNxxICSR2QH4zg6THVSIhkXDCh5KHkEt3+PC0hVj/EkTCUPJQ8lD8VAEQaUPBQ4RcDRbGA8s4FR+kXJQ8lDyUMxUIQBJQ8FThFwRjnDaV/jmeUoeSh5KHkoBoowoOShwCkCjmYD45kNjNIvSh5KHkoeioEiDCh5KHCKgDPKGU77Gs8sR8lDyUPJQzFQhAElDwVOEXA0GxjPbGCUflHyUPJQ8lAMFGFAyUOBUwScUc5w2td4ZjknyGNp+bq5vPS6HjoGigHFQBIDjjxenl00eugYKAYUA1IMKHkoaeqkoRgowoCShwKnCDjS2UnrTW4m83+SroeTUIebSwAAAABJRU5ErkJggg==;" parent="agkJGMWgo49mgOo-eszO-12" vertex="1">
          <mxGeometry x="17.998571428571267" y="94.9985714285715" width="271" height="60" as="geometry" />
        </mxCell>
        <mxCell id="agkJGMWgo49mgOo-eszO-16" value="" style="shape=image;verticalLabelPosition=bottom;labelBackgroundColor=default;verticalAlign=top;aspect=fixed;imageAspect=0;image=data:image/png,iVBORw0KGgoAAAANSUhEUgAAASoAAAA9CAYAAAAaniS4AAANtElEQVR4Ae1d63JcRxH246QiWZEs2ZIoyZISYqE4G7xWSACbooqgEpeYkn8AxrJiuSBUioKIFEuAYPMAKj2E+an3EM8xVM/ZntPb6rmc3Tm7s6r+sXWu09Pd8/U3fWbmnL32xuyS0Z/6QDGgGCgZA9eocmubO0Z/6gPFgGKgBAxQbrpEVKvrd8ytb72jP/WBYkAxMDEMAA8FiQpI6q3Fdf2pDxQDioGJYeDm6jtKVErE2hEpBsrGgBKV9pIT6yWVHMomh5LaR4lKiUqJSjFQPAaUqBSkxYO0pJ5ddZlMFqhEpUSlRKUYKB4DSlQK0uJBqlnMZLKYkvyuRKVEpUSlGCgeA0pUCtLiQVpSz666TCa7U6JSolKiUgwUjwElKgVp8SDVLGYyWUxJfleiUqJSolIMFI+BsRHV/Nv3zNKDX5lbn35uln/zlVn57Bv7g304B9fgnpJYXHXRnlwxUAYGWieqxc6PzPKv/2pWX/wn6Qf3QhkFSBkA0XbQdigBA60R1fz6jlk++FMSOUkkBmVBRglOUh00WBUDk8VAK0S1cOd7ZuXw66FJCokLZIAsBclkQaL+V/9PGgPZiQqIZfX5y5FJCskKZClZaaBMOlC0/sliMCtRwaNajkzKkVR/XAtk6mNgHCjdo8fmf/99Zi5OH5ruwlrWTLRN2VeFBOYWts3J6aFtg/Oj7az+vyo+GtaOrEQ1ypgUJyd+DLKbGLm2u2Hef7Zp7v95y+z+Zcu8/9mm2fjh7UYymtTX5N65zkNz/roCNBBL6MdJBwnjvNe9ZAte42Wa6Oa7t03Zvjqn7XyMqOYWuuYs0u4Xp4/N+em+OTnqjtzZzO3tO2yd7Y3Wcc11uuakt2/OT6vOEDF78bqv7167xJyNqGCmjpNL7uPU2cC1D2+b3S+3xN/Gw41LAT7ugBiWqCjQASAnnUHwtUkmbcoet//bqi8HUSEB4BZI64C1c4r+VBeQdSF0bElyOl1z1s8SUSff9gIItiXCykZUKUsQVo5fmqX9Z2bugwdmZuuueXP9XTPz7j0z1/2xWfzlsVk9fhUkO6gjxbl3DyuS2niwYeaXbtsf7AN5ffD7rSQZKfUMew8SlUQ2MZlIGJpRxR+FY77MfZ2Sg/ToRzsaX4bT7WybgyPIXOqMG3By1pAAEGNIKsNgDTIymvmf9x6ag85g5jSH+pJMUbJ9VF9nISpYqBnLnpYPvzbX737fkhMQlPR7a/cnUTkpi0LvfVER1cJqDeb5W1WWdf/L6SaqUIMjiemjX93uIX/lvpaDqKhO3b3BIQIfudEyuF9j4bEjmyYEQonu4nU8qwPbD3o1uTbRFXUObbMQFawqDxHV8vFLc/3ux5acru98aLOn5ac9W2b56d/N0i+em+r8i6AcqAPqChkE12BMCrInfh8+DvLz4z5GEAzTy4V0rcGpg+khP7V1LTdRgZ4wNoTjWpYwEiZJBvXoOgJJ7cBo+dQ6ra5kMqFJuZT2yEJUtx79MUgwN/Z+Z0lq9r2Pzcrzb+R7I499SIRQV8wwyJqUqAbHr2I+i11vkwRjdU/LdRrgUvaS8ugn2UoHxSW5vAzejx0hHsNjYEqmg22dej+tn9o47LgYlYf7WYgqNj6Fj3xLjz6XSSrx9Rogq5Rxqvsso8JMKnWLzmlrO0pGhem1BAIEWKznhEeKMzZ7Uw3aDo4/UPu5bAjKLoxhsLGUahwjjSSrmSSYNaofGSA47KxXwpiMLW/Hc+rHGxyTiQ1CY/Biz29JplfPaPkIwe+7NdMaUdFMJWHpicNI/94m5EFtiOGI4oPuu/rhkTEhA6RlfftZiGrl6F9BAprZfM9mVN5sqgFRQV0+Y/A8EhI/xvOxLZZrazspogIQHpBgxKCmW2+ADqzRqtcL0bK4Xw3++skqRQ+QBbNIPqDT4MN6pa3PnkGiujyzxcvRAJbqgXMw4B1aR0V1TslsKP5cRyHM9tL7aB3UhlTyQGxW9vjbkNbJ99G3o8jgMsdMVGFCw8e70DaFqLiRMWLi13n53McIBkzNm8h3gBOmmx2YPb2uKwuzSGSdDicOKYio7JPeobFkRGSADXTwN2Qb6gFAhtnLLpl+57NIPrKyAYnrjS7NRNXE49MDgwkyqjNrj3/AmJKUz24+hU9JAtuXkojkY7xP2iJmYsHv2okRWmr52i+Xl79IeknnqJ2SH6QysXNZiCr10e/moz8EM68QQeG1lEc/bjQnotgxL5/7GEHjC6JQfRjkTR/9EIAhoNcgv5zJ4DUoH9KbglTScVAP/6Mm+siS2RCrvGPlqR4he6At6L0+gqFk5tOZ+sYnx9f21B5fWaoD9/3ANU9HBnVjO+MjsU+f0HlqJ9cjVC50LQtRRQfTP3lSzfht75qVo3+KZLX89G9m5dk/xGtIUrBNGUznBseIiV/n5XMfU9ABqH0/KYCGIaoBkAqZGNpHAcaDAQHsC0KUAVsMbK5/qh4oC+scNmhCvkIdY/Y00Zm2q5RJhPyLNvu2tKwk2/qdvPHA2w+u1/70Z0vungCZ+XTE8018hmVi2yxEFVuesPLilZnd+ciS1cy3v2sWf3Zk7PKE41dm+bdfmRs/fWJm3+7YdVYrz/8dJKuU5QncaE5EsWNePvcxBbSPpOA8D3TQIxR8PpBhfZI8bhvK58HgZCcMkNKgogHTRA/QC+8HX1A5XGffMdoi9epIVDGfoA6x+6y+ZNCb+6+6Xi81aGoP9akkG+Q7ez1thLaEyNnJuIpElbTg82nPwPIEaaEnnpv/wc+jq9NTFnxy4MaIiV/n5XMfI2BSwM/rdkASMiNHJgxkLijZeS4bjn3yfbIlGbRHpUHl9PAEEpflkyPd1+10zQHMZvb27YwmXVEdJqrLj7lUfhOdY/pSsmlMVJFsicqW7AWbqH6+LNW1c2IbUV/hPtWFtj9eH2abJaOCimPjVPDYBpnVjU+eVCvUN3fMmxvfMTPb9838R/vm5uMvgpkUlB9mfAp040QUOx7GkU3KjJuoEHyh7I1f42BHGSlT1jQgKFCbyAB/+uSgr6ulAoNLG7gdcMxtsbL7L+z6AtbVMTDbGZ4Fi+lLA7gxUTl95cc2JFSwNyQb28B3H14fphNFn1E7afvj9WG22YiqpJeSuSNixMSv8/K5j5Wo0lbOhwIfA8oSEbzB36u+OHCwB7OI2/bLA77sENoTA3taiMrZ4sl08Dr4I/UnEngkc0uJhdq3MqmmyOD3ZCMqEFzSZ16ooZyIYse0bBv7kyKqlGzIZy8SQ4oM2qPS3t3J8AQbr5sSFZWD/oOADPXYGLxiQLoMJfzo53ROeGym+kp6+fzC7ebHtJwol5BLKknBfVLWROtKaWuuKxw7vyf4TCovnctKVPrhvLSXYTHQJKBIjUTPORAMM0aVSBC0Ptx3AZsgw2ef7zzWwbe++50ukUAI+aru9cNEVd8Xzw5okIuEQr5HRYmX282PnR0e3zt/eK5zeehXH9GjPLjeRE+oJyab65J6nJWooFL9FHGcrLAxx0ZUQwYIBVET8LrAYkRCA1nKcmh9sI918p7dd56Wj9VVE1CEqEi2IpEPrRP18hEA1SmVAOA1JZDnl1mvhk/xKehLMz/u2+p6PTsZezSm9g/ITSRNWj60n52ooDIgqxyfJL6qf+4wbqKCNnHkAQAiK8FD4KDXaBCGwIsE4OuNqZzQN5bQR5IclOHTAwIG7YXyUgCjnj4Z1HaUFepYqL5+UqkJIEZUlQ3k3UMhgwYd0Q7JT9QGvh8rR6/btwMimKEk1VQXrpt03ApRQUXwGDjKmBWUvarfSUdQh4AvNRacc0EjANcFMMtkoBztzaFeIAn6XXUAGkzxn8BLvkHZ1QvAVnfy4rANLCjb/4Ca1FNXetQZgA1o/goNkAyVI+iC/oPyPIjsZ1FO+6/49N9rHJWoBupjvrN+639gDnTBV2mk7Iu2gURUrg16gy9ZS7IQHw4PDTMYqovkH9tW5MN50N7V606DbxPYD/0RfStshWdHUfcm29aICpWA2cCUpQu4+hzuTf3kMNYxbVsEvg32SE/FbXPAFAI4RFQgB4MYAjz0k4A7IJsAWJLjIym0BQLyJPJyNMi1geF5+x71Eeu3ZLJWPzoKvsKMISWjsr6L2gyPkDUJS+RCyUHSm5/jJIz+wy2VJ9WH9/m2DksBkkvFDOge09enR8r51okKlYCFmrCqXP/SvR5wHDdRQVu4zId9WsX2mPiSr0AOSAxIQvYTK4xsUj/PgpiwGRzpjS3Ybc8Nn7yN98riJ1fs53Krsk7nDERlfQef3eX6ntYveFsC7vtVIg5KLJyUnO2QlcHL3in24xov9gIy+je2xQ4T6pb0peVdW3HcwJ9RCJ8opmVz7I+NqHIoqzLiA/XqI/XRVcSAEtWiAvsqAlttulq4VqJSoop+iFCD/moF/TS2pxKVEpUSlWKgeAwoUSlIiwfpNGYAqnPeLFSJSolKiUoxUDwGlKgUpMWDVLOTvNnJNPpTiUqJSolKMVA8BpSoFKTFg3QaMwDVOW8WqESlRKVEpRgoHgNKVArS4kGq2Une7GQa/alEpUSlRKUYKB4DSlQK0uJBOo0ZgOqcNwtUolKiUqJSDBSPASUqBWnxINXsJG92Mo3+jBLV6vodAzfpT32gGFAMTAoDwENvzC653zV6oPu1Y9QX6gvFQDkYUKIirK3ALAeY2hbaFhQD/weQV5vzNXFbogAAAABJRU5ErkJggg==;" parent="1" vertex="1">
          <mxGeometry x="-1124.9957142857143" y="593" width="298" height="61" as="geometry" />
        </mxCell>
        <mxCell id="xa6kxprS_D6g3-J246Ru-1" value="&lt;span style=&quot;font-size: 14px;&quot;&gt;&lt;b&gt;같은 테이블을 공유하므로,&lt;br&gt;해당 표시되는 값이 같다.&lt;/b&gt;&lt;/span&gt;" style="text;html=1;strokeColor=none;fillColor=none;align=center;verticalAlign=middle;whiteSpace=wrap;rounded=0;" vertex="1" parent="1">
          <mxGeometry x="-1457" y="-227" width="228" height="49" as="geometry" />
        </mxCell>
      </root>
    </mxGraphModel>
  </diagram>
</mxfile>
